<svg width="412" height="44" viewBox="0 0 412 44" fill="none" xmlns="http://www.w3.org/2000/svg">
<g filter="url(#filter0_d_1_4072)">
<path d="M2 9C2 4.58172 5.58172 1 10 1H402C406.418 1 410 4.58172 410 9V33C410 37.4183 406.418 41 402 41H10C5.58172 41 2 37.4183 2 33V9Z" fill="white" shape-rendering="crispEdges"/>
<path d="M2.5 9C2.5 4.85786 5.85786 1.5 10 1.5H402C406.142 1.5 409.5 4.85786 409.5 9V33C409.5 37.1421 406.142 40.5 402 40.5H10C5.85786 40.5 2.5 37.1421 2.5 33V9Z" stroke="#D5D7DA" shape-rendering="crispEdges"/>
<path d="M23.0455 15.3636H24.4545V23.0682C24.4545 23.8636 24.267 24.5739 23.892 25.1989C23.5208 25.8201 22.9962 26.3106 22.3182 26.6705C21.6402 27.0265 20.8447 27.2045 19.9318 27.2045C19.0189 27.2045 18.2235 27.0265 17.5455 26.6705C16.8674 26.3106 16.3409 25.8201 15.9659 25.1989C15.5947 24.5739 15.4091 23.8636 15.4091 23.0682V15.3636H16.8182V22.9545C16.8182 23.5227 16.9432 24.0284 17.1932 24.4716C17.4432 24.911 17.7992 25.2576 18.2614 25.5114C18.7273 25.7614 19.2841 25.8864 19.9318 25.8864C20.5795 25.8864 21.1364 25.7614 21.6023 25.5114C22.0682 25.2576 22.4242 24.911 22.6705 24.4716C22.9205 24.0284 23.0455 23.5227 23.0455 22.9545V15.3636ZM30.8821 18.2727V19.4091H26.3594V18.2727H30.8821ZM27.6776 16.1818H29.0185V24.5C29.0185 24.8788 29.0734 25.1629 29.1832 25.3523C29.2969 25.5379 29.4408 25.6629 29.6151 25.7273C29.7931 25.7879 29.9806 25.8182 30.1776 25.8182C30.3253 25.8182 30.4465 25.8106 30.5412 25.7955C30.6359 25.7765 30.7116 25.7614 30.7685 25.75L31.0412 26.9545C30.9503 26.9886 30.8234 27.0227 30.6605 27.0568C30.4976 27.0947 30.2912 27.1136 30.0412 27.1136C29.6624 27.1136 29.2912 27.0322 28.9276 26.8693C28.5677 26.7064 28.2685 26.4583 28.0298 26.125C27.795 25.7917 27.6776 25.3712 27.6776 24.8636V16.1818ZM34.3366 23.8182L34.3139 22.1591H34.5866L38.4048 18.2727H40.0639L35.9957 22.3864H35.8821L34.3366 23.8182ZM33.0866 27V15.3636H34.4276V27H33.0866ZM38.6321 27L35.223 22.6818L36.1776 21.75L40.3366 27H38.6321ZM44.358 27.2045C43.8049 27.2045 43.303 27.1004 42.8523 26.892C42.4015 26.6799 42.0436 26.375 41.7784 25.9773C41.5133 25.5758 41.3807 25.0909 41.3807 24.5227C41.3807 24.0227 41.4792 23.6174 41.6761 23.3068C41.8731 22.9924 42.1364 22.7462 42.4659 22.5682C42.7955 22.3902 43.1591 22.2576 43.5568 22.1705C43.9583 22.0795 44.3617 22.0076 44.767 21.9545C45.2973 21.8864 45.7273 21.8352 46.0568 21.8011C46.3902 21.7633 46.6326 21.7008 46.7841 21.6136C46.9394 21.5265 47.017 21.375 47.017 21.1591V21.1136C47.017 20.553 46.8636 20.1174 46.5568 19.8068C46.2538 19.4962 45.7936 19.3409 45.1761 19.3409C44.536 19.3409 44.0341 19.4811 43.6705 19.7614C43.3068 20.0417 43.0511 20.3409 42.9034 20.6591L41.6307 20.2045C41.858 19.6742 42.161 19.2614 42.5398 18.9659C42.9223 18.6667 43.339 18.4583 43.7898 18.3409C44.2443 18.2197 44.6913 18.1591 45.1307 18.1591C45.411 18.1591 45.733 18.1932 46.0966 18.2614C46.464 18.3258 46.8182 18.4602 47.1591 18.6648C47.5038 18.8693 47.7898 19.178 48.017 19.5909C48.2443 20.0038 48.358 20.5568 48.358 21.25V27H47.017V25.8182H46.9489C46.858 26.0076 46.7064 26.2102 46.4943 26.4261C46.2822 26.642 46 26.8258 45.6477 26.9773C45.2955 27.1288 44.8655 27.2045 44.358 27.2045ZM44.5625 26C45.0928 26 45.5398 25.8958 45.9034 25.6875C46.2708 25.4792 46.5473 25.2102 46.733 24.8807C46.9223 24.5511 47.017 24.2045 47.017 23.8409V22.6136C46.9602 22.6818 46.8352 22.7443 46.642 22.8011C46.4527 22.8542 46.233 22.9015 45.983 22.9432C45.7367 22.9811 45.4962 23.0152 45.2614 23.0455C45.0303 23.072 44.8428 23.0947 44.6989 23.1136C44.3504 23.1591 44.0246 23.233 43.7216 23.3352C43.4223 23.4337 43.1799 23.5833 42.9943 23.7841C42.8125 23.9811 42.7216 24.25 42.7216 24.5909C42.7216 25.0568 42.8939 25.4091 43.2386 25.6477C43.5871 25.8826 44.0284 26 44.5625 26ZM50.8054 27V18.2727H52.1009V19.5909H52.1918C52.3509 19.1591 52.6387 18.8087 53.0554 18.5398C53.4721 18.2708 53.9418 18.1364 54.4645 18.1364C54.563 18.1364 54.6861 18.1383 54.8338 18.142C54.9815 18.1458 55.0933 18.1515 55.169 18.1591V19.5227C55.1236 19.5114 55.0194 19.4943 54.8565 19.4716C54.6974 19.4451 54.5289 19.4318 54.3509 19.4318C53.9266 19.4318 53.5478 19.5208 53.2145 19.6989C52.8849 19.8731 52.6236 20.1155 52.4304 20.4261C52.241 20.733 52.1463 21.0833 52.1463 21.4773V27H50.8054ZM62.9403 20.2273L61.7358 20.5682C61.66 20.3674 61.5483 20.1723 61.4006 19.983C61.2566 19.7898 61.0597 19.6307 60.8097 19.5057C60.5597 19.3807 60.2396 19.3182 59.8494 19.3182C59.3153 19.3182 58.8703 19.4413 58.5142 19.6875C58.1619 19.9299 57.9858 20.2386 57.9858 20.6136C57.9858 20.947 58.107 21.2102 58.3494 21.4034C58.5919 21.5966 58.9706 21.7576 59.4858 21.8864L60.7812 22.2045C61.5616 22.3939 62.143 22.6837 62.5256 23.0739C62.9081 23.4602 63.0994 23.9583 63.0994 24.5682C63.0994 25.0682 62.9555 25.5152 62.6676 25.9091C62.3835 26.303 61.9858 26.6136 61.4744 26.8409C60.9631 27.0682 60.3684 27.1818 59.6903 27.1818C58.8002 27.1818 58.0634 26.9886 57.4801 26.6023C56.8968 26.2159 56.5275 25.6515 56.3722 24.9091L57.6449 24.5909C57.7661 25.0606 57.9953 25.4129 58.3324 25.6477C58.6733 25.8826 59.1184 26 59.6676 26C60.2926 26 60.7888 25.8674 61.1562 25.6023C61.5275 25.3333 61.7131 25.0114 61.7131 24.6364C61.7131 24.3333 61.607 24.0795 61.3949 23.875C61.1828 23.6667 60.857 23.5114 60.4176 23.4091L58.9631 23.0682C58.1638 22.8788 57.5767 22.5852 57.2017 22.1875C56.8305 21.786 56.6449 21.2841 56.6449 20.6818C56.6449 20.1894 56.7831 19.7538 57.0597 19.375C57.34 18.9962 57.7206 18.6989 58.2017 18.483C58.6866 18.267 59.2358 18.1591 59.8494 18.1591C60.7131 18.1591 61.3911 18.3485 61.8835 18.7273C62.3797 19.1061 62.732 19.6061 62.9403 20.2273ZM66.4588 21.75V27H65.1179V15.3636H66.4588V19.6364H66.5724C66.777 19.1856 67.0838 18.8277 67.4929 18.5625C67.9058 18.2936 68.455 18.1591 69.1406 18.1591C69.7353 18.1591 70.2562 18.2784 70.7031 18.517C71.1501 18.7519 71.4967 19.1136 71.7429 19.6023C71.9929 20.0871 72.1179 20.7045 72.1179 21.4545V27H70.777V21.5455C70.777 20.8523 70.5971 20.3163 70.2372 19.9375C69.8812 19.5549 69.3868 19.3636 68.7543 19.3636C68.3149 19.3636 67.9209 19.4564 67.5724 19.642C67.2277 19.8277 66.955 20.0985 66.7543 20.4545C66.5573 20.8106 66.4588 21.2424 66.4588 21.75ZM78.3438 27H74.7528V15.3636H78.5028C79.6316 15.3636 80.5975 15.5966 81.4006 16.0625C82.2036 16.5246 82.8191 17.1894 83.2472 18.0568C83.6752 18.9205 83.8892 19.9545 83.8892 21.1591C83.8892 22.3712 83.6733 23.4148 83.2415 24.2898C82.8097 25.161 82.1809 25.8314 81.3551 26.3011C80.5294 26.767 79.5256 27 78.3438 27ZM76.1619 25.75H78.2528C79.215 25.75 80.0123 25.5644 80.6449 25.1932C81.2775 24.822 81.7491 24.2936 82.0597 23.608C82.3703 22.9223 82.5256 22.1061 82.5256 21.1591C82.5256 20.2197 82.3722 19.411 82.0653 18.733C81.7585 18.0511 81.3002 17.5284 80.6903 17.1648C80.0805 16.7973 79.321 16.6136 78.4119 16.6136H76.1619V25.75ZM87.4119 21.75V27H86.071V15.3636H87.4119V19.6364H87.5256C87.7301 19.1856 88.0369 18.8277 88.446 18.5625C88.8589 18.2936 89.4081 18.1591 90.0938 18.1591C90.6884 18.1591 91.2093 18.2784 91.6562 18.517C92.1032 18.7519 92.4498 19.1136 92.696 19.6023C92.946 20.0871 93.071 20.7045 93.071 21.4545V27H91.7301V21.5455C91.7301 20.8523 91.5502 20.3163 91.1903 19.9375C90.8343 19.5549 90.34 19.3636 89.7074 19.3636C89.268 19.3636 88.8741 19.4564 88.5256 19.642C88.1809 19.8277 87.9081 20.0985 87.7074 20.4545C87.5104 20.8106 87.4119 21.2424 87.4119 21.75ZM98.0923 27.2045C97.5393 27.2045 97.0374 27.1004 96.5866 26.892C96.1359 26.6799 95.7779 26.375 95.5128 25.9773C95.2476 25.5758 95.1151 25.0909 95.1151 24.5227C95.1151 24.0227 95.2135 23.6174 95.4105 23.3068C95.6075 22.9924 95.8707 22.7462 96.2003 22.5682C96.5298 22.3902 96.8935 22.2576 97.2912 22.1705C97.6927 22.0795 98.0961 22.0076 98.5014 21.9545C99.0317 21.8864 99.4616 21.8352 99.7912 21.8011C100.125 21.7633 100.367 21.7008 100.518 21.6136C100.674 21.5265 100.751 21.375 100.751 21.1591V21.1136C100.751 20.553 100.598 20.1174 100.291 19.8068C99.9882 19.4962 99.5279 19.3409 98.9105 19.3409C98.2704 19.3409 97.7685 19.4811 97.4048 19.7614C97.0412 20.0417 96.7855 20.3409 96.6378 20.6591L95.3651 20.2045C95.5923 19.6742 95.8954 19.2614 96.2741 18.9659C96.6567 18.6667 97.0734 18.4583 97.5241 18.3409C97.9787 18.2197 98.4257 18.1591 98.8651 18.1591C99.1454 18.1591 99.4673 18.1932 99.831 18.2614C100.198 18.3258 100.553 18.4602 100.893 18.6648C101.238 18.8693 101.524 19.178 101.751 19.5909C101.979 20.0038 102.092 20.5568 102.092 21.25V27H100.751V25.8182H100.683C100.592 26.0076 100.441 26.2102 100.229 26.4261C100.017 26.642 99.7344 26.8258 99.3821 26.9773C99.0298 27.1288 98.5999 27.2045 98.0923 27.2045ZM98.2969 26C98.8272 26 99.2741 25.8958 99.6378 25.6875C100.005 25.4792 100.282 25.2102 100.467 24.8807C100.657 24.5511 100.751 24.2045 100.751 23.8409V22.6136C100.695 22.6818 100.57 22.7443 100.376 22.8011C100.187 22.8542 99.9673 22.9015 99.7173 22.9432C99.4711 22.9811 99.2306 23.0152 98.9957 23.0455C98.7647 23.072 98.5772 23.0947 98.4332 23.1136C98.0848 23.1591 97.759 23.233 97.456 23.3352C97.1567 23.4337 96.9143 23.5833 96.7287 23.7841C96.5469 23.9811 96.456 24.25 96.456 24.5909C96.456 25.0568 96.6283 25.4091 96.973 25.6477C97.3215 25.8826 97.7628 26 98.2969 26ZM104.54 27V18.2727H105.881V27H104.54ZM105.222 16.8182C104.96 16.8182 104.735 16.7292 104.545 16.5511C104.36 16.3731 104.267 16.1591 104.267 15.9091C104.267 15.6591 104.36 15.4451 104.545 15.267C104.735 15.089 104.96 15 105.222 15C105.483 15 105.706 15.089 105.892 15.267C106.081 15.4451 106.176 15.6591 106.176 15.9091C106.176 16.1591 106.081 16.3731 105.892 16.5511C105.706 16.7292 105.483 16.8182 105.222 16.8182ZM108.337 27V18.2727H109.632V19.5909H109.723C109.882 19.1591 110.17 18.8087 110.587 18.5398C111.003 18.2708 111.473 18.1364 111.996 18.1364C112.094 18.1364 112.217 18.1383 112.365 18.142C112.513 18.1458 112.625 18.1515 112.7 18.1591V19.5227C112.655 19.5114 112.551 19.4943 112.388 19.4716C112.229 19.4451 112.06 19.4318 111.882 19.4318C111.458 19.4318 111.079 19.5208 110.746 19.6989C110.416 19.8731 110.155 20.1155 109.962 20.4261C109.772 20.733 109.678 21.0833 109.678 21.4773V27H108.337ZM115.419 30.2727C115.192 30.2727 114.989 30.2538 114.811 30.2159C114.633 30.1818 114.51 30.1477 114.442 30.1136L114.783 28.9318C115.108 29.0152 115.396 29.0455 115.646 29.0227C115.896 29 116.118 28.8883 116.311 28.6875C116.508 28.4905 116.688 28.1705 116.851 27.7273L117.101 27.0455L113.874 18.2727H115.328L117.737 25.2273H117.828L120.237 18.2727H121.692L117.987 28.2727C117.821 28.7235 117.614 29.0966 117.368 29.392C117.122 29.6913 116.836 29.9129 116.51 30.0568C116.188 30.2008 115.824 30.2727 115.419 30.2727ZM125.764 27.2045C125.211 27.2045 124.709 27.1004 124.259 26.892C123.808 26.6799 123.45 26.375 123.185 25.9773C122.92 25.5758 122.787 25.0909 122.787 24.5227C122.787 24.0227 122.885 23.6174 123.082 23.3068C123.279 22.9924 123.543 22.7462 123.872 22.5682C124.202 22.3902 124.565 22.2576 124.963 22.1705C125.365 22.0795 125.768 22.0076 126.173 21.9545C126.704 21.8864 127.134 21.8352 127.463 21.8011C127.796 21.7633 128.039 21.7008 128.19 21.6136C128.346 21.5265 128.423 21.375 128.423 21.1591V21.1136C128.423 20.553 128.27 20.1174 127.963 19.8068C127.66 19.4962 127.2 19.3409 126.582 19.3409C125.942 19.3409 125.44 19.4811 125.077 19.7614C124.713 20.0417 124.457 20.3409 124.31 20.6591L123.037 20.2045C123.264 19.6742 123.567 19.2614 123.946 18.9659C124.329 18.6667 124.745 18.4583 125.196 18.3409C125.651 18.2197 126.098 18.1591 126.537 18.1591C126.817 18.1591 127.139 18.1932 127.503 18.2614C127.87 18.3258 128.224 18.4602 128.565 18.6648C128.91 18.8693 129.196 19.178 129.423 19.5909C129.651 20.0038 129.764 20.5568 129.764 21.25V27H128.423V25.8182H128.355C128.264 26.0076 128.113 26.2102 127.901 26.4261C127.688 26.642 127.406 26.8258 127.054 26.9773C126.702 27.1288 126.272 27.2045 125.764 27.2045ZM125.969 26C126.499 26 126.946 25.8958 127.31 25.6875C127.677 25.4792 127.954 25.2102 128.139 24.8807C128.329 24.5511 128.423 24.2045 128.423 23.8409V22.6136C128.366 22.6818 128.241 22.7443 128.048 22.8011C127.859 22.8542 127.639 22.9015 127.389 22.9432C127.143 22.9811 126.902 23.0152 126.668 23.0455C126.437 23.072 126.249 23.0947 126.105 23.1136C125.757 23.1591 125.431 23.233 125.128 23.3352C124.829 23.4337 124.586 23.5833 124.401 23.7841C124.219 23.9811 124.128 24.25 124.128 24.5909C124.128 25.0568 124.3 25.4091 124.645 25.6477C124.993 25.8826 125.435 26 125.969 26ZM132.393 27V15.3636H136.325C137.238 15.3636 137.984 15.5284 138.564 15.858C139.147 16.1837 139.579 16.625 139.859 17.1818C140.14 17.7386 140.28 18.3598 140.28 19.0455C140.28 19.7311 140.14 20.3542 139.859 20.9148C139.583 21.4754 139.155 21.9223 138.575 22.2557C137.996 22.5852 137.253 22.75 136.348 22.75H133.53V21.5H136.303C136.928 21.5 137.429 21.392 137.808 21.1761C138.187 20.9602 138.462 20.6686 138.632 20.3011C138.806 19.9299 138.893 19.5114 138.893 19.0455C138.893 18.5795 138.806 18.1629 138.632 17.7955C138.462 17.428 138.185 17.1402 137.803 16.9318C137.42 16.7197 136.912 16.6136 136.28 16.6136H133.803V27H132.393ZM144.936 27.2045C144.383 27.2045 143.881 27.1004 143.43 26.892C142.98 26.6799 142.622 26.375 142.357 25.9773C142.091 25.5758 141.959 25.0909 141.959 24.5227C141.959 24.0227 142.057 23.6174 142.254 23.3068C142.451 22.9924 142.714 22.7462 143.044 22.5682C143.374 22.3902 143.737 22.2576 144.135 22.1705C144.536 22.0795 144.94 22.0076 145.345 21.9545C145.875 21.8864 146.305 21.8352 146.635 21.8011C146.968 21.7633 147.211 21.7008 147.362 21.6136C147.518 21.5265 147.595 21.375 147.595 21.1591V21.1136C147.595 20.553 147.442 20.1174 147.135 19.8068C146.832 19.4962 146.372 19.3409 145.754 19.3409C145.114 19.3409 144.612 19.4811 144.249 19.7614C143.885 20.0417 143.629 20.3409 143.482 20.6591L142.209 20.2045C142.436 19.6742 142.739 19.2614 143.118 18.9659C143.5 18.6667 143.917 18.4583 144.368 18.3409C144.822 18.2197 145.269 18.1591 145.709 18.1591C145.989 18.1591 146.311 18.1932 146.675 18.2614C147.042 18.3258 147.396 18.4602 147.737 18.6648C148.082 18.8693 148.368 19.178 148.595 19.5909C148.822 20.0038 148.936 20.5568 148.936 21.25V27H147.595V25.8182H147.527C147.436 26.0076 147.285 26.2102 147.072 26.4261C146.86 26.642 146.578 26.8258 146.226 26.9773C145.874 27.1288 145.444 27.2045 144.936 27.2045ZM145.141 26C145.671 26 146.118 25.8958 146.482 25.6875C146.849 25.4792 147.125 25.2102 147.311 24.8807C147.5 24.5511 147.595 24.2045 147.595 23.8409V22.6136C147.538 22.6818 147.413 22.7443 147.22 22.8011C147.031 22.8542 146.811 22.9015 146.561 22.9432C146.315 22.9811 146.074 23.0152 145.839 23.0455C145.608 23.072 145.421 23.0947 145.277 23.1136C144.929 23.1591 144.603 23.233 144.3 23.3352C144 23.4337 143.758 23.5833 143.572 23.7841C143.391 23.9811 143.3 24.25 143.3 24.5909C143.3 25.0568 143.472 25.4091 143.817 25.6477C144.165 25.8826 144.607 26 145.141 26ZM152.724 21.75V27H151.384V18.2727H152.679V19.6364H152.793C152.997 19.1932 153.308 18.8371 153.724 18.5682C154.141 18.2955 154.679 18.1591 155.338 18.1591C155.929 18.1591 156.446 18.2803 156.889 18.5227C157.332 18.7614 157.677 19.125 157.923 19.6136C158.17 20.0985 158.293 20.7121 158.293 21.4545V27H156.952V21.5455C156.952 20.8598 156.774 20.3258 156.418 19.9432C156.062 19.5568 155.573 19.3636 154.952 19.3636C154.524 19.3636 154.141 19.4564 153.804 19.642C153.471 19.8277 153.207 20.0985 153.014 20.4545C152.821 20.8106 152.724 21.2424 152.724 21.75ZM162.72 27L160.061 18.2727H161.47L163.357 24.9545H163.447L165.311 18.2727H166.743L168.584 24.9318H168.675L170.561 18.2727H171.97L169.311 27H167.993L166.084 20.2955H165.947L164.038 27H162.72ZM176.311 27.2045C175.758 27.2045 175.256 27.1004 174.805 26.892C174.355 26.6799 173.997 26.375 173.732 25.9773C173.466 25.5758 173.334 25.0909 173.334 24.5227C173.334 24.0227 173.432 23.6174 173.629 23.3068C173.826 22.9924 174.089 22.7462 174.419 22.5682C174.749 22.3902 175.112 22.2576 175.51 22.1705C175.911 22.0795 176.315 22.0076 176.72 21.9545C177.25 21.8864 177.68 21.8352 178.01 21.8011C178.343 21.7633 178.586 21.7008 178.737 21.6136C178.893 21.5265 178.97 21.375 178.97 21.1591V21.1136C178.97 20.553 178.817 20.1174 178.51 19.8068C178.207 19.4962 177.747 19.3409 177.129 19.3409C176.489 19.3409 175.987 19.4811 175.624 19.7614C175.26 20.0417 175.004 20.3409 174.857 20.6591L173.584 20.2045C173.811 19.6742 174.114 19.2614 174.493 18.9659C174.875 18.6667 175.292 18.4583 175.743 18.3409C176.197 18.2197 176.644 18.1591 177.084 18.1591C177.364 18.1591 177.686 18.1932 178.05 18.2614C178.417 18.3258 178.771 18.4602 179.112 18.6648C179.457 18.8693 179.743 19.178 179.97 19.5909C180.197 20.0038 180.311 20.5568 180.311 21.25V27H178.97V25.8182H178.902C178.811 26.0076 178.66 26.2102 178.447 26.4261C178.235 26.642 177.953 26.8258 177.601 26.9773C177.249 27.1288 176.819 27.2045 176.311 27.2045ZM176.516 26C177.046 26 177.493 25.8958 177.857 25.6875C178.224 25.4792 178.5 25.2102 178.686 24.8807C178.875 24.5511 178.97 24.2045 178.97 23.8409V22.6136C178.913 22.6818 178.788 22.7443 178.595 22.8011C178.406 22.8542 178.186 22.9015 177.936 22.9432C177.69 22.9811 177.449 23.0152 177.214 23.0455C176.983 23.072 176.796 23.0947 176.652 23.1136C176.304 23.1591 175.978 23.233 175.675 23.3352C175.375 23.4337 175.133 23.5833 174.947 23.7841C174.766 23.9811 174.675 24.25 174.675 24.5909C174.675 25.0568 174.847 25.4091 175.192 25.6477C175.54 25.8826 175.982 26 176.516 26ZM182.759 27V18.2727H184.054V19.5909H184.145C184.304 19.1591 184.592 18.8087 185.009 18.5398C185.425 18.2708 185.895 18.1364 186.418 18.1364C186.516 18.1364 186.639 18.1383 186.787 18.142C186.935 18.1458 187.046 18.1515 187.122 18.1591V19.5227C187.077 19.5114 186.973 19.4943 186.81 19.4716C186.651 19.4451 186.482 19.4318 186.304 19.4318C185.88 19.4318 185.501 19.5208 185.168 19.6989C184.838 19.8731 184.577 20.1155 184.384 20.4261C184.194 20.733 184.099 21.0833 184.099 21.4773V27H182.759Z" fill="#181D27"/>
<path d="M397.762 18.6817L391.793 24.4005C391.605 24.5567 391.418 24.6192 391.262 24.6192C391.074 24.6192 390.887 24.5567 390.73 24.4317L384.73 18.6817C384.418 18.4005 384.418 17.9005 384.699 17.6192C384.98 17.3067 385.48 17.3067 385.762 17.588L391.262 22.838L396.73 17.588C397.012 17.3067 397.512 17.3067 397.793 17.6192C398.074 17.9005 398.074 18.4005 397.762 18.6817Z" fill="#181D27"/>
</g>
<defs>
<filter id="filter0_d_1_4072" x="0" y="0" width="412" height="44" filterUnits="userSpaceOnUse" color-interpolation-filters="sRGB">
<feFlood flood-opacity="0" result="BackgroundImageFix"/>
<feColorMatrix in="SourceAlpha" type="matrix" values="0 0 0 0 0 0 0 0 0 0 0 0 0 0 0 0 0 0 127 0" result="hardAlpha"/>
<feOffset dy="1"/>
<feGaussianBlur stdDeviation="1"/>
<feComposite in2="hardAlpha" operator="out"/>
<feColorMatrix type="matrix" values="0 0 0 0 0.0392157 0 0 0 0 0.0496732 0 0 0 0 0.0705882 0 0 0 0.05 0"/>
<feBlend mode="normal" in2="BackgroundImageFix" result="effect1_dropShadow_1_4072"/>
<feBlend mode="normal" in="SourceGraphic" in2="effect1_dropShadow_1_4072" result="shape"/>
</filter>
</defs>
</svg>
