<svg width="720" height="960" viewBox="0 0 720 960" fill="none" xmlns="http://www.w3.org/2000/svg">
<g filter="url(#filter0_d_1_6998)">
<rect x="123" y="319" width="447" height="170" rx="24" fill="white"/>
</g>
<path fill-rule="evenodd" clip-rule="evenodd" d="M163.614 340.159C163.23 340.233 162.633 340.401 162.281 340.527C161.929 340.653 161.182 340.979 160.628 341.253C160.073 341.526 159.113 342.084 158.495 342.494C157.876 342.904 156.916 343.629 156.362 344.124C155.807 344.607 155.039 345.354 154.655 345.785C154.271 346.206 153.589 347.058 153.119 347.668C152.661 348.277 151.957 349.319 151.562 349.981C151.157 350.644 150.559 351.758 150.218 352.452C149.888 353.146 149.397 354.261 149.141 354.924C148.874 355.586 148.544 356.606 148.394 357.185C148.192 358.005 148.117 358.604 148.074 359.919C148.032 361.023 148.064 361.875 148.149 362.39C148.224 362.821 148.394 363.484 148.522 363.862C148.65 364.241 148.896 364.809 149.056 365.124C149.216 365.44 149.557 365.965 149.802 366.281C150.048 366.596 150.485 367.049 150.773 367.28C151.061 367.511 151.658 367.9 152.095 368.142C152.533 368.395 153.621 368.878 154.495 369.215C155.38 369.562 156.671 370.014 157.375 370.224C158.079 370.435 159.231 370.698 159.935 370.824C160.99 371.003 161.513 371.024 162.921 370.982C164.169 370.94 164.862 370.876 165.481 370.708C165.95 370.592 166.739 370.288 167.23 370.046C167.806 369.762 168.35 369.383 168.734 369.015C169.064 368.689 169.47 368.163 169.64 367.806C169.907 367.269 169.96 367.028 169.992 366.176C170.024 365.377 169.982 364.977 169.768 364.178C169.63 363.631 169.31 362.716 169.064 362.159C168.83 361.591 168.382 360.686 168.072 360.161C167.763 359.624 167.155 358.709 166.707 358.131C166.27 357.553 165.523 356.701 165.054 356.228C164.585 355.765 163.806 355.081 163.326 354.703C162.857 354.335 162.388 354.03 162.292 354.03C162.196 354.03 162.121 354.051 162.121 354.082C162.121 354.114 162.42 354.419 162.772 354.766C163.134 355.113 163.689 355.702 163.998 356.08C164.307 356.459 164.574 356.806 164.574 356.869C164.574 356.932 164.084 356.459 163.476 355.817C162.868 355.176 162.11 354.461 161.79 354.219C161.47 353.977 160.926 353.609 160.575 353.399C160.223 353.199 159.551 352.905 159.081 352.747C158.409 352.536 158.004 352.473 157.162 352.473C156.458 352.463 155.892 352.526 155.508 352.642C155.188 352.736 154.698 352.957 154.42 353.136L153.908 353.451C153.738 352.926 153.695 352.6 153.695 352.4C153.695 352.2 153.791 351.727 153.898 351.348C154.015 350.97 154.346 350.307 154.644 349.876C154.932 349.445 155.498 348.74 155.892 348.309C156.298 347.888 157.012 347.247 157.481 346.9C157.951 346.553 158.751 346.069 159.273 345.817C159.785 345.564 160.617 345.228 161.14 345.07C161.982 344.818 162.228 344.786 163.828 344.786C165.193 344.776 165.779 344.818 166.441 344.975C166.91 345.081 167.678 345.301 168.147 345.47C168.616 345.638 169.235 345.953 169.523 346.174C169.822 346.385 170.206 346.763 170.376 347.005C170.558 347.247 170.814 347.625 170.952 347.846C171.08 348.067 171.336 348.33 171.507 348.435C171.688 348.53 171.955 348.614 172.104 348.614C172.264 348.614 172.499 348.488 172.691 348.298C172.936 348.046 173 347.888 173 347.541C173 347.236 172.893 346.91 172.691 346.563C172.531 346.279 172.083 345.764 171.709 345.428C171.336 345.091 170.664 344.639 170.227 344.418C169.79 344.187 169.118 343.913 168.734 343.798C168.35 343.682 167.582 343.535 167.027 343.461C166.377 343.366 165.587 343.345 164.841 343.388C164.19 343.43 163.262 343.556 162.761 343.661C162.26 343.777 161.492 343.997 161.054 344.145C160.617 344.302 159.945 344.586 159.561 344.776C159.177 344.965 158.431 345.407 157.908 345.754C157.385 346.101 156.543 346.753 156.052 347.215C155.562 347.668 154.815 348.488 154.399 349.035C153.972 349.581 153.418 350.412 153.162 350.875C152.757 351.579 152.671 351.674 152.65 351.453C152.629 351.306 152.767 350.738 152.949 350.191C153.13 349.645 153.471 348.835 153.706 348.404C153.94 347.973 154.388 347.289 154.708 346.879C155.018 346.479 155.626 345.817 156.052 345.417C156.49 345.007 157.247 344.418 157.748 344.103C158.249 343.787 159.049 343.345 159.54 343.125C160.02 342.904 160.884 342.588 161.449 342.42C162.025 342.262 162.825 342.062 163.241 341.999C163.657 341.926 164.542 341.831 165.214 341.779C166.163 341.705 166.483 341.642 166.633 341.495C166.739 341.389 166.825 341.169 166.825 340.99C166.825 340.801 166.729 340.59 166.579 340.454C166.441 340.327 166.227 340.17 166.089 340.107C165.961 340.043 165.502 339.991 165.075 340.001C164.659 340.001 163.998 340.075 163.614 340.159ZM155.914 355.607C155.626 355.691 155.242 355.923 155.05 356.112C154.826 356.322 154.655 356.638 154.57 356.974C154.484 357.279 154.463 357.679 154.506 357.921C154.538 358.152 154.676 358.552 154.794 358.815C154.922 359.077 155.284 359.551 155.615 359.877C155.988 360.255 156.5 360.613 157.055 360.886C157.524 361.118 158.271 361.444 158.708 361.591C159.145 361.748 160.297 362.117 161.268 362.411C162.473 362.779 163.23 362.947 163.646 362.958C164.201 362.968 164.297 362.937 164.531 362.684C164.681 362.506 164.787 362.253 164.787 362.074C164.787 361.906 164.713 361.58 164.617 361.37C164.531 361.149 164.244 360.686 163.998 360.339C163.742 359.992 162.921 359.088 162.164 358.32C161.321 357.468 160.5 356.764 160.041 356.469C159.625 356.217 159.007 355.902 158.655 355.765C158.281 355.628 157.684 355.512 157.215 355.491C156.692 355.46 156.244 355.502 155.903 355.607H155.914Z" fill="#081735"/>
<path d="M147.616 354.577C147.242 355.029 146.762 355.702 146.539 356.08C146.315 356.459 146.005 357.09 145.845 357.5C145.685 357.91 145.472 358.562 145.365 358.972C145.259 359.382 145.12 360.203 145.056 360.813C144.981 361.57 144.981 362.243 145.056 362.968C145.12 363.547 145.259 364.378 145.376 364.809C145.483 365.24 145.707 365.902 145.867 366.281C146.037 366.659 146.272 367.143 146.411 367.364C146.549 367.574 146.837 367.953 147.05 368.184C147.274 368.426 147.744 368.826 148.096 369.068C148.448 369.32 149.024 369.657 149.376 369.835C149.728 370.004 150.485 370.298 151.05 370.477C151.626 370.656 152.362 370.834 152.693 370.887C153.119 370.94 153.311 370.929 153.407 370.824C153.493 370.733 153.5 370.659 153.429 370.603C153.365 370.55 152.885 370.288 152.362 370.014C151.829 369.741 151.05 369.278 150.613 368.973C150.176 368.679 149.546 368.174 149.226 367.858C148.896 367.543 148.426 366.996 148.192 366.649C147.946 366.302 147.658 365.829 147.541 365.597C147.413 365.366 147.221 364.872 147.104 364.493C146.986 364.115 146.826 363.389 146.762 362.863C146.667 362.138 146.656 361.654 146.752 360.76C146.826 360.129 146.976 359.151 147.104 358.604C147.221 358.057 147.488 357.132 147.69 356.554C147.893 355.975 148.213 355.218 148.384 354.871C148.554 354.524 148.682 354.145 148.661 354.03C148.64 353.914 148.554 353.809 148.448 353.788C148.341 353.767 148.042 354.04 147.616 354.577Z" fill="#081735"/>
<path d="M184.394 362H181.428L185.947 348.909H189.514L194.027 362H191.061L187.782 351.901H187.68L184.394 362ZM184.209 356.854H191.214V359.015H184.209V356.854ZM198.37 348.909V362H195.603V348.909H198.37ZM209.985 352.182V354.227H204.072V352.182H209.985ZM205.414 349.83H208.137V358.983C208.137 359.234 208.176 359.43 208.252 359.571C208.329 359.707 208.436 359.803 208.572 359.859C208.713 359.914 208.875 359.942 209.058 359.942C209.186 359.942 209.314 359.931 209.441 359.91C209.569 359.884 209.667 359.865 209.735 359.852L210.164 361.879C210.027 361.921 209.836 361.97 209.588 362.026C209.341 362.085 209.041 362.121 208.687 362.134C208.031 362.16 207.456 362.072 206.961 361.872C206.471 361.672 206.09 361.361 205.817 360.939C205.544 360.517 205.41 359.984 205.414 359.341V349.83ZM216.089 362.192C215.096 362.192 214.238 361.981 213.513 361.559C212.793 361.133 212.237 360.54 211.845 359.782C211.453 359.019 211.257 358.135 211.257 357.129C211.257 356.115 211.453 355.229 211.845 354.47C212.237 353.707 212.793 353.115 213.513 352.693C214.238 352.267 215.096 352.054 216.089 352.054C217.082 352.054 217.939 352.267 218.659 352.693C219.383 353.115 219.941 353.707 220.333 354.47C220.725 355.229 220.922 356.115 220.922 357.129C220.922 358.135 220.725 359.019 220.333 359.782C219.941 360.54 219.383 361.133 218.659 361.559C217.939 361.981 217.082 362.192 216.089 362.192ZM216.102 360.082C216.554 360.082 216.931 359.955 217.233 359.699C217.536 359.439 217.764 359.085 217.917 358.638C218.075 358.19 218.154 357.681 218.154 357.11C218.154 356.539 218.075 356.03 217.917 355.582C217.764 355.135 217.536 354.781 217.233 354.521C216.931 354.261 216.554 354.131 216.102 354.131C215.646 354.131 215.262 354.261 214.951 354.521C214.645 354.781 214.412 355.135 214.255 355.582C214.101 356.03 214.025 356.539 214.025 357.11C214.025 357.681 214.101 358.19 214.255 358.638C214.412 359.085 214.645 359.439 214.951 359.699C215.262 359.955 215.646 360.082 216.102 360.082ZM231.55 362H226.909V348.909H231.588C232.905 348.909 234.039 349.171 234.989 349.695C235.939 350.215 236.67 350.963 237.181 351.939C237.697 352.915 237.955 354.082 237.955 355.442C237.955 356.805 237.697 357.977 237.181 358.957C236.67 359.937 235.935 360.69 234.976 361.214C234.021 361.738 232.879 362 231.55 362ZM229.677 359.629H231.435C232.253 359.629 232.941 359.484 233.499 359.194C234.062 358.9 234.484 358.446 234.765 357.832C235.051 357.214 235.193 356.418 235.193 355.442C235.193 354.474 235.051 353.684 234.765 353.07C234.484 352.457 234.064 352.005 233.506 351.715C232.948 351.425 232.259 351.281 231.441 351.281H229.677V359.629ZM244.428 362.192C243.418 362.192 242.549 361.987 241.82 361.578C241.096 361.165 240.538 360.581 240.146 359.827C239.754 359.068 239.558 358.171 239.558 357.136C239.558 356.126 239.754 355.239 240.146 354.477C240.538 353.714 241.089 353.119 241.801 352.693C242.517 352.267 243.357 352.054 244.32 352.054C244.967 352.054 245.57 352.158 246.129 352.367C246.691 352.572 247.181 352.881 247.599 353.294C248.021 353.707 248.349 354.227 248.583 354.854C248.817 355.476 248.935 356.205 248.935 357.04V357.788H240.644V356.1H246.371C246.371 355.708 246.286 355.361 246.116 355.058C245.945 354.756 245.709 354.519 245.406 354.349C245.108 354.174 244.761 354.087 244.364 354.087C243.951 354.087 243.585 354.183 243.265 354.374C242.95 354.562 242.702 354.815 242.523 355.135C242.344 355.45 242.253 355.802 242.249 356.19V357.794C242.249 358.28 242.338 358.7 242.517 359.053C242.7 359.407 242.958 359.68 243.29 359.871C243.623 360.063 244.017 360.159 244.473 360.159C244.776 360.159 245.053 360.116 245.304 360.031C245.555 359.946 245.771 359.818 245.95 359.648C246.129 359.477 246.265 359.268 246.359 359.021L248.877 359.188C248.749 359.793 248.487 360.321 248.091 360.773C247.699 361.22 247.192 361.57 246.57 361.821C245.952 362.068 245.238 362.192 244.428 362.192ZM255.934 352.182V354.227H250.021V352.182H255.934ZM251.364 349.83H254.087V358.983C254.087 359.234 254.125 359.43 254.202 359.571C254.278 359.707 254.385 359.803 254.521 359.859C254.662 359.914 254.824 359.942 255.007 359.942C255.135 359.942 255.263 359.931 255.391 359.91C255.518 359.884 255.616 359.865 255.685 359.852L256.113 361.879C255.977 361.921 255.785 361.97 255.538 362.026C255.29 362.085 254.99 362.121 254.636 362.134C253.98 362.16 253.405 362.072 252.911 361.872C252.42 361.672 252.039 361.361 251.766 360.939C251.494 360.517 251.359 359.984 251.364 359.341V349.83ZM262.077 362.192C261.067 362.192 260.197 361.987 259.469 361.578C258.744 361.165 258.186 360.581 257.794 359.827C257.402 359.068 257.206 358.171 257.206 357.136C257.206 356.126 257.402 355.239 257.794 354.477C258.186 353.714 258.738 353.119 259.45 352.693C260.165 352.267 261.005 352.054 261.968 352.054C262.616 352.054 263.219 352.158 263.777 352.367C264.339 352.572 264.83 352.881 265.247 353.294C265.669 353.707 265.997 354.227 266.232 354.854C266.466 355.476 266.583 356.205 266.583 357.04V357.788H258.293V356.1H264.02C264.02 355.708 263.935 355.361 263.764 355.058C263.594 354.756 263.357 354.519 263.055 354.349C262.756 354.174 262.409 354.087 262.013 354.087C261.599 354.087 261.233 354.183 260.913 354.374C260.598 354.562 260.351 354.815 260.172 355.135C259.993 355.45 259.901 355.802 259.897 356.19V357.794C259.897 358.28 259.987 358.7 260.165 359.053C260.349 359.407 260.607 359.68 260.939 359.871C261.271 360.063 261.665 360.159 262.121 360.159C262.424 360.159 262.701 360.116 262.952 360.031C263.204 359.946 263.419 359.818 263.598 359.648C263.777 359.477 263.913 359.268 264.007 359.021L266.526 359.188C266.398 359.793 266.136 360.321 265.739 360.773C265.347 361.22 264.84 361.57 264.218 361.821C263.6 362.068 262.886 362.192 262.077 362.192ZM272.796 362.192C271.79 362.192 270.925 361.979 270.201 361.553C269.481 361.122 268.927 360.526 268.539 359.763C268.156 359 267.964 358.122 267.964 357.129C267.964 356.124 268.158 355.241 268.545 354.483C268.938 353.72 269.494 353.126 270.214 352.7C270.934 352.269 271.79 352.054 272.783 352.054C273.64 352.054 274.39 352.21 275.033 352.521C275.677 352.832 276.186 353.268 276.561 353.831C276.936 354.393 277.143 355.054 277.181 355.812H274.612C274.539 355.322 274.347 354.928 274.036 354.63C273.729 354.327 273.327 354.176 272.828 354.176C272.406 354.176 272.038 354.291 271.722 354.521C271.411 354.747 271.168 355.077 270.994 355.512C270.819 355.947 270.732 356.473 270.732 357.091C270.732 357.717 270.817 358.25 270.987 358.689C271.162 359.128 271.407 359.462 271.722 359.692C272.038 359.923 272.406 360.038 272.828 360.038C273.139 360.038 273.418 359.974 273.665 359.846C273.917 359.718 274.124 359.533 274.286 359.29C274.452 359.043 274.56 358.746 274.612 358.401H277.181C277.138 359.151 276.934 359.812 276.567 360.383C276.205 360.95 275.705 361.393 275.065 361.712C274.426 362.032 273.67 362.192 272.796 362.192ZM284.147 352.182V354.227H278.234V352.182H284.147ZM279.577 349.83H282.3V358.983C282.3 359.234 282.338 359.43 282.415 359.571C282.491 359.707 282.598 359.803 282.734 359.859C282.875 359.914 283.037 359.942 283.22 359.942C283.348 359.942 283.476 359.931 283.604 359.91C283.731 359.884 283.829 359.865 283.898 359.852L284.326 361.879C284.189 361.921 283.998 361.97 283.751 362.026C283.503 362.085 283.203 362.121 282.849 362.134C282.193 362.16 281.618 362.072 281.123 361.872C280.633 361.672 280.252 361.361 279.979 360.939C279.706 360.517 279.572 359.984 279.577 359.341V349.83ZM294.101 362.192C293.197 362.192 292.418 362.03 291.761 361.706C291.105 361.382 290.6 360.943 290.246 360.389C289.897 359.831 289.722 359.209 289.722 358.523C289.722 358.011 289.825 357.558 290.029 357.161C290.234 356.765 290.519 356.401 290.886 356.068C291.252 355.732 291.678 355.397 292.164 355.065L294.702 353.396C295.03 353.187 295.271 352.968 295.424 352.738C295.577 352.504 295.654 352.25 295.654 351.977C295.654 351.717 295.55 351.477 295.341 351.255C295.132 351.033 294.836 350.925 294.452 350.929C294.197 350.929 293.975 350.987 293.788 351.102C293.6 351.212 293.453 351.359 293.347 351.543C293.244 351.722 293.193 351.922 293.193 352.143C293.193 352.416 293.27 352.693 293.423 352.974C293.577 353.256 293.781 353.554 294.037 353.869C294.293 354.18 294.572 354.517 294.874 354.879L301.081 362H298.243L293.065 356.234C292.724 355.847 292.384 355.442 292.043 355.02C291.706 354.594 291.425 354.142 291.199 353.665C290.973 353.183 290.86 352.661 290.86 352.099C290.86 351.464 291.007 350.893 291.301 350.386C291.599 349.879 292.017 349.478 292.554 349.184C293.091 348.886 293.717 348.737 294.433 348.737C295.132 348.737 295.735 348.879 296.242 349.165C296.754 349.446 297.146 349.821 297.418 350.29C297.695 350.754 297.834 351.266 297.834 351.824C297.834 352.442 297.68 353.002 297.374 353.505C297.071 354.004 296.645 354.451 296.095 354.847L293.423 356.771C293.061 357.036 292.793 357.306 292.618 357.583C292.447 357.856 292.362 358.118 292.362 358.369C292.362 358.68 292.439 358.96 292.592 359.207C292.746 359.454 292.963 359.65 293.244 359.795C293.526 359.935 293.856 360.006 294.235 360.006C294.695 360.006 295.149 359.901 295.597 359.692C296.048 359.479 296.457 359.179 296.824 358.791C297.195 358.399 297.491 357.935 297.712 357.398C297.934 356.861 298.045 356.266 298.045 355.614H300.301C300.301 356.415 300.214 357.138 300.039 357.781C299.864 358.42 299.621 358.979 299.31 359.456C298.999 359.929 298.643 360.317 298.243 360.619C298.115 360.7 297.991 360.777 297.872 360.849C297.753 360.922 297.629 360.999 297.501 361.08C297.016 361.472 296.472 361.755 295.871 361.93C295.275 362.104 294.685 362.192 294.101 362.192ZM308.689 362H305.723L310.242 348.909H313.809L318.322 362H315.356L312.077 351.901H311.975L308.689 362ZM308.504 356.854H315.509V359.015H308.504V356.854ZM326.143 357.82V352.182H328.866V362H326.251V360.217H326.149C325.927 360.792 325.559 361.254 325.043 361.604C324.532 361.953 323.907 362.128 323.17 362.128C322.514 362.128 321.937 361.979 321.438 361.68C320.939 361.382 320.55 360.958 320.268 360.408C319.991 359.859 319.851 359.2 319.846 358.433V352.182H322.569V357.947C322.574 358.527 322.729 358.985 323.036 359.322C323.343 359.658 323.754 359.827 324.27 359.827C324.598 359.827 324.905 359.752 325.19 359.603C325.476 359.45 325.706 359.224 325.881 358.925C326.059 358.627 326.147 358.259 326.143 357.82ZM336.266 352.182V354.227H330.353V352.182H336.266ZM331.696 349.83H334.419V358.983C334.419 359.234 334.457 359.43 334.534 359.571C334.61 359.707 334.717 359.803 334.853 359.859C334.994 359.914 335.156 359.942 335.339 359.942C335.467 359.942 335.595 359.931 335.723 359.91C335.85 359.884 335.949 359.865 336.017 359.852L336.445 361.879C336.309 361.921 336.117 361.97 335.87 362.026C335.623 362.085 335.322 362.121 334.968 362.134C334.312 362.16 333.737 362.072 333.243 361.872C332.752 361.672 332.371 361.361 332.098 360.939C331.826 360.517 331.691 359.984 331.696 359.341V349.83ZM342.37 362.192C341.377 362.192 340.519 361.981 339.794 361.559C339.074 361.133 338.518 360.54 338.126 359.782C337.734 359.019 337.538 358.135 337.538 357.129C337.538 356.115 337.734 355.229 338.126 354.47C338.518 353.707 339.074 353.115 339.794 352.693C340.519 352.267 341.377 352.054 342.37 352.054C343.363 352.054 344.22 352.267 344.94 352.693C345.664 353.115 346.223 353.707 346.615 354.47C347.007 355.229 347.203 356.115 347.203 357.129C347.203 358.135 347.007 359.019 346.615 359.782C346.223 360.54 345.664 361.133 344.94 361.559C344.22 361.981 343.363 362.192 342.37 362.192ZM342.383 360.082C342.835 360.082 343.212 359.955 343.515 359.699C343.817 359.439 344.045 359.085 344.199 358.638C344.356 358.19 344.435 357.681 344.435 357.11C344.435 356.539 344.356 356.03 344.199 355.582C344.045 355.135 343.817 354.781 343.515 354.521C343.212 354.261 342.835 354.131 342.383 354.131C341.927 354.131 341.544 354.261 341.233 354.521C340.926 354.781 340.694 355.135 340.536 355.582C340.382 356.03 340.306 356.539 340.306 357.11C340.306 357.681 340.382 358.19 340.536 358.638C340.694 359.085 340.926 359.439 341.233 359.699C341.544 359.955 341.927 360.082 342.383 360.082ZM354.253 352.182V354.227H348.194V352.182H354.253ZM349.581 362V351.472C349.581 350.761 349.719 350.17 349.996 349.702C350.277 349.233 350.661 348.881 351.147 348.647C351.632 348.413 352.184 348.295 352.802 348.295C353.22 348.295 353.601 348.327 353.946 348.391C354.296 348.455 354.556 348.513 354.726 348.564L354.24 350.609C354.134 350.575 354.002 350.543 353.844 350.513C353.691 350.484 353.533 350.469 353.371 350.469C352.971 350.469 352.691 350.562 352.534 350.75C352.376 350.933 352.297 351.191 352.297 351.523V362H349.581ZM355.917 362V352.182H358.64V362H355.917ZM357.285 350.916C356.88 350.916 356.532 350.782 356.243 350.513C355.957 350.241 355.814 349.915 355.814 349.536C355.814 349.161 355.957 348.839 356.243 348.57C356.532 348.298 356.88 348.161 357.285 348.161C357.689 348.161 358.035 348.298 358.32 348.57C358.61 348.839 358.755 349.161 358.755 349.536C358.755 349.915 358.61 350.241 358.32 350.513C358.035 350.782 357.689 350.916 357.285 350.916ZM363.097 352.182L364.899 355.614L366.746 352.182H369.54L366.695 357.091L369.616 362H366.836L364.899 358.606L362.994 362H360.182L363.097 357.091L360.284 352.182H363.097ZM375.374 362V348.909H380.616C381.579 348.909 382.382 349.052 383.025 349.337C383.669 349.623 384.153 350.019 384.476 350.526C384.8 351.029 384.962 351.609 384.962 352.265C384.962 352.776 384.86 353.226 384.655 353.614C384.451 353.997 384.17 354.312 383.812 354.56C383.458 354.803 383.053 354.975 382.597 355.077V355.205C383.096 355.227 383.562 355.367 383.997 355.627C384.436 355.887 384.792 356.251 385.064 356.72C385.337 357.185 385.474 357.739 385.474 358.382C385.474 359.077 385.301 359.697 384.956 360.242C384.615 360.783 384.11 361.212 383.441 361.527C382.772 361.842 381.947 362 380.967 362H375.374ZM378.142 359.737H380.398C381.17 359.737 381.732 359.59 382.086 359.296C382.439 358.998 382.616 358.602 382.616 358.107C382.616 357.745 382.529 357.425 382.354 357.148C382.18 356.871 381.93 356.654 381.606 356.496C381.287 356.339 380.905 356.26 380.462 356.26H378.142V359.737ZM378.142 354.387H380.194C380.573 354.387 380.91 354.321 381.204 354.189C381.502 354.053 381.736 353.861 381.907 353.614C382.081 353.366 382.169 353.07 382.169 352.725C382.169 352.252 382.001 351.871 381.664 351.581C381.331 351.291 380.858 351.146 380.245 351.146H378.142V354.387ZM390.023 362.185C389.397 362.185 388.838 362.077 388.348 361.859C387.858 361.638 387.471 361.312 387.185 360.881C386.904 360.447 386.763 359.906 386.763 359.258C386.763 358.712 386.863 358.254 387.064 357.884C387.264 357.513 387.537 357.214 387.882 356.989C388.227 356.763 388.619 356.592 389.058 356.477C389.501 356.362 389.966 356.281 390.451 356.234C391.022 356.175 391.483 356.119 391.832 356.068C392.181 356.013 392.435 355.932 392.593 355.825C392.75 355.719 392.829 355.561 392.829 355.352V355.314C392.829 354.909 392.701 354.596 392.446 354.374C392.194 354.153 391.836 354.042 391.372 354.042C390.882 354.042 390.492 354.151 390.202 354.368C389.912 354.581 389.721 354.849 389.627 355.173L387.108 354.969C387.236 354.372 387.488 353.857 387.863 353.422C388.238 352.983 388.721 352.646 389.314 352.412C389.91 352.173 390.6 352.054 391.385 352.054C391.93 352.054 392.452 352.118 392.951 352.246C393.453 352.374 393.899 352.572 394.287 352.84C394.679 353.109 394.988 353.454 395.213 353.876C395.439 354.293 395.552 354.794 395.552 355.378V362H392.97V360.638H392.893C392.735 360.945 392.525 361.216 392.26 361.45C391.996 361.68 391.679 361.862 391.308 361.994C390.937 362.121 390.509 362.185 390.023 362.185ZM390.803 360.306C391.203 360.306 391.557 360.227 391.864 360.07C392.171 359.908 392.412 359.69 392.586 359.418C392.761 359.145 392.848 358.836 392.848 358.491V357.449C392.763 357.504 392.646 357.555 392.497 357.602C392.352 357.645 392.188 357.685 392.005 357.724C391.821 357.758 391.638 357.79 391.455 357.82C391.272 357.845 391.105 357.869 390.956 357.89C390.637 357.937 390.358 358.011 390.119 358.114C389.88 358.216 389.695 358.354 389.563 358.529C389.431 358.7 389.365 358.913 389.365 359.168C389.365 359.539 389.499 359.822 389.767 360.018C390.04 360.21 390.385 360.306 390.803 360.306ZM401.283 362.16C400.537 362.16 399.862 361.968 399.256 361.585C398.656 361.197 398.178 360.628 397.825 359.878C397.475 359.124 397.3 358.199 397.3 357.104C397.3 355.979 397.482 355.043 397.844 354.298C398.206 353.548 398.688 352.987 399.288 352.616C399.893 352.241 400.556 352.054 401.276 352.054C401.826 352.054 402.284 352.148 402.651 352.335C403.021 352.518 403.32 352.749 403.545 353.026C403.776 353.298 403.95 353.567 404.07 353.831H404.153V348.909H406.869V362H404.185V360.428H404.07C403.942 360.7 403.761 360.971 403.526 361.239C403.296 361.504 402.996 361.723 402.625 361.898C402.259 362.072 401.811 362.16 401.283 362.16ZM402.146 359.993C402.585 359.993 402.955 359.874 403.258 359.635C403.565 359.392 403.799 359.053 403.961 358.619C404.127 358.184 404.21 357.675 404.21 357.091C404.21 356.507 404.129 356 403.967 355.57C403.805 355.139 403.571 354.807 403.264 354.572C402.957 354.338 402.585 354.221 402.146 354.221C401.698 354.221 401.321 354.342 401.014 354.585C400.707 354.828 400.475 355.165 400.317 355.595C400.16 356.026 400.081 356.524 400.081 357.091C400.081 357.662 400.16 358.167 400.317 358.606C400.479 359.04 400.712 359.381 401.014 359.629C401.321 359.871 401.698 359.993 402.146 359.993ZM424.876 353.492H422.076C422.025 353.13 421.92 352.808 421.763 352.527C421.605 352.241 421.403 351.999 421.156 351.798C420.908 351.598 420.623 351.445 420.299 351.338C419.979 351.232 419.632 351.178 419.257 351.178C418.58 351.178 417.989 351.347 417.487 351.683C416.984 352.016 416.594 352.501 416.317 353.141C416.04 353.776 415.901 354.547 415.901 355.455C415.901 356.388 416.04 357.172 416.317 357.807C416.598 358.442 416.99 358.921 417.493 359.245C417.996 359.569 418.577 359.731 419.238 359.731C419.609 359.731 419.952 359.682 420.267 359.584C420.587 359.486 420.87 359.343 421.117 359.156C421.364 358.964 421.569 358.732 421.731 358.459C421.897 358.186 422.012 357.875 422.076 357.526L424.876 357.538C424.803 358.139 424.622 358.719 424.332 359.277C424.047 359.831 423.661 360.327 423.175 360.766C422.694 361.201 422.119 361.546 421.45 361.802C420.785 362.053 420.033 362.179 419.193 362.179C418.026 362.179 416.982 361.915 416.061 361.386C415.145 360.858 414.42 360.093 413.888 359.092C413.359 358.09 413.095 356.878 413.095 355.455C413.095 354.027 413.364 352.812 413.901 351.811C414.438 350.81 415.166 350.047 416.087 349.523C417.007 348.994 418.043 348.73 419.193 348.73C419.952 348.73 420.655 348.837 421.303 349.05C421.955 349.263 422.532 349.574 423.035 349.983C423.538 350.388 423.947 350.884 424.262 351.472C424.582 352.06 424.786 352.734 424.876 353.492ZM431.245 362.192C430.252 362.192 429.394 361.981 428.669 361.559C427.949 361.133 427.393 360.54 427.001 359.782C426.609 359.019 426.413 358.135 426.413 357.129C426.413 356.115 426.609 355.229 427.001 354.47C427.393 353.707 427.949 353.115 428.669 352.693C429.394 352.267 430.252 352.054 431.245 352.054C432.238 352.054 433.095 352.267 433.815 352.693C434.539 353.115 435.098 353.707 435.49 354.47C435.882 355.229 436.078 356.115 436.078 357.129C436.078 358.135 435.882 359.019 435.49 359.782C435.098 360.54 434.539 361.133 433.815 361.559C433.095 361.981 432.238 362.192 431.245 362.192ZM431.258 360.082C431.71 360.082 432.087 359.955 432.39 359.699C432.692 359.439 432.92 359.085 433.074 358.638C433.231 358.19 433.31 357.681 433.31 357.11C433.31 356.539 433.231 356.03 433.074 355.582C432.92 355.135 432.692 354.781 432.39 354.521C432.087 354.261 431.71 354.131 431.258 354.131C430.802 354.131 430.419 354.261 430.108 354.521C429.801 354.781 429.569 355.135 429.411 355.582C429.257 356.03 429.181 356.539 429.181 357.11C429.181 357.681 429.257 358.19 429.411 358.638C429.569 359.085 429.801 359.439 430.108 359.699C430.419 359.955 430.802 360.082 431.258 360.082ZM441.466 362.16C440.721 362.16 440.045 361.968 439.44 361.585C438.839 361.197 438.362 360.628 438.008 359.878C437.659 359.124 437.484 358.199 437.484 357.104C437.484 355.979 437.665 355.043 438.027 354.298C438.39 353.548 438.871 352.987 439.472 352.616C440.077 352.241 440.74 352.054 441.46 352.054C442.01 352.054 442.468 352.148 442.834 352.335C443.205 352.518 443.503 352.749 443.729 353.026C443.959 353.298 444.134 353.567 444.253 353.831H444.336V348.909H447.053V362H444.368V360.428H444.253C444.125 360.7 443.944 360.971 443.71 361.239C443.48 361.504 443.179 361.723 442.809 361.898C442.442 362.072 441.995 362.16 441.466 362.16ZM442.329 359.993C442.768 359.993 443.139 359.874 443.441 359.635C443.748 359.392 443.983 359.053 444.145 358.619C444.311 358.184 444.394 357.675 444.394 357.091C444.394 356.507 444.313 356 444.151 355.57C443.989 355.139 443.755 354.807 443.448 354.572C443.141 354.338 442.768 354.221 442.329 354.221C441.882 354.221 441.505 354.342 441.198 354.585C440.891 354.828 440.659 355.165 440.501 355.595C440.343 356.026 440.265 356.524 440.265 357.091C440.265 357.662 440.343 358.167 440.501 358.606C440.663 359.04 440.895 359.381 441.198 359.629C441.505 359.871 441.882 359.993 442.329 359.993ZM453.766 362.192C452.756 362.192 451.887 361.987 451.158 361.578C450.434 361.165 449.876 360.581 449.483 359.827C449.091 359.068 448.895 358.171 448.895 357.136C448.895 356.126 449.091 355.239 449.483 354.477C449.876 353.714 450.427 353.119 451.139 352.693C451.855 352.267 452.694 352.054 453.657 352.054C454.305 352.054 454.908 352.158 455.466 352.367C456.029 352.572 456.519 352.881 456.937 353.294C457.358 353.707 457.687 354.227 457.921 354.854C458.155 355.476 458.273 356.205 458.273 357.04V357.788H449.982V356.1H455.709C455.709 355.708 455.624 355.361 455.454 355.058C455.283 354.756 455.047 354.519 454.744 354.349C454.446 354.174 454.099 354.087 453.702 354.087C453.289 354.087 452.922 354.183 452.603 354.374C452.287 354.562 452.04 354.815 451.861 355.135C451.682 355.45 451.591 355.802 451.586 356.19V357.794C451.586 358.28 451.676 358.7 451.855 359.053C452.038 359.407 452.296 359.68 452.628 359.871C452.961 360.063 453.355 360.159 453.811 360.159C454.113 360.159 454.39 360.116 454.642 360.031C454.893 359.946 455.108 359.818 455.287 359.648C455.466 359.477 455.603 359.268 455.697 359.021L458.215 359.188C458.087 359.793 457.825 360.321 457.429 360.773C457.037 361.22 456.53 361.57 455.907 361.821C455.29 362.068 454.576 362.192 453.766 362.192Z" fill="#081735"/>
<line x1="123" y1="390.5" x2="570" y2="390.5" stroke="#E6E8F0"/>
<path d="M191.9 433.679C190.945 433.679 190.095 433.515 189.349 433.187C188.608 432.854 188.022 432.398 187.592 431.819C187.165 431.235 186.946 430.562 186.933 429.799H189.72C189.737 430.119 189.842 430.4 190.033 430.643C190.229 430.881 190.489 431.067 190.813 431.199C191.137 431.331 191.501 431.397 191.906 431.397C192.328 431.397 192.701 431.322 193.025 431.173C193.349 431.024 193.602 430.817 193.786 430.553C193.969 430.289 194.06 429.984 194.06 429.639C194.06 429.29 193.962 428.981 193.766 428.712C193.575 428.44 193.298 428.227 192.935 428.073C192.577 427.92 192.151 427.843 191.657 427.843H190.436V425.81H191.657C192.075 425.81 192.443 425.738 192.763 425.593C193.087 425.448 193.338 425.248 193.517 424.992C193.696 424.732 193.786 424.43 193.786 424.085C193.786 423.756 193.707 423.469 193.549 423.222C193.396 422.97 193.178 422.774 192.897 422.634C192.62 422.493 192.296 422.423 191.925 422.423C191.55 422.423 191.207 422.491 190.896 422.627C190.585 422.759 190.336 422.949 190.148 423.196C189.961 423.443 189.861 423.733 189.848 424.065H187.195C187.208 423.311 187.423 422.646 187.841 422.071C188.259 421.496 188.821 421.046 189.528 420.722C190.24 420.394 191.043 420.23 191.938 420.23C192.842 420.23 193.632 420.394 194.31 420.722C194.987 421.05 195.513 421.494 195.888 422.052C196.268 422.606 196.455 423.228 196.451 423.918C196.455 424.651 196.227 425.263 195.767 425.753C195.311 426.243 194.717 426.554 193.984 426.686V426.788C194.947 426.912 195.68 427.246 196.183 427.792C196.69 428.333 196.941 429.011 196.937 429.825C196.941 430.57 196.726 431.233 196.291 431.812C195.861 432.392 195.266 432.848 194.508 433.18C193.749 433.513 192.88 433.679 191.9 433.679ZM204.059 433.788C202.96 433.783 202.014 433.513 201.221 432.976C200.433 432.439 199.825 431.661 199.399 430.643C198.977 429.624 198.769 428.399 198.773 426.967C198.773 425.54 198.984 424.323 199.406 423.317C199.832 422.312 200.439 421.547 201.227 421.023C202.02 420.494 202.964 420.23 204.059 420.23C205.154 420.23 206.096 420.494 206.884 421.023C207.677 421.551 208.286 422.318 208.713 423.324C209.139 424.325 209.35 425.54 209.345 426.967C209.345 428.403 209.132 429.631 208.706 430.649C208.284 431.668 207.679 432.445 206.891 432.982C206.102 433.519 205.159 433.788 204.059 433.788ZM204.059 431.493C204.809 431.493 205.408 431.116 205.855 430.362C206.303 429.607 206.524 428.476 206.52 426.967C206.52 425.974 206.418 425.148 206.213 424.487C206.013 423.827 205.727 423.33 205.357 422.998C204.99 422.665 204.558 422.499 204.059 422.499C203.313 422.499 202.717 422.872 202.269 423.618C201.822 424.364 201.596 425.48 201.592 426.967C201.592 427.973 201.692 428.812 201.892 429.486C202.097 430.155 202.384 430.658 202.755 430.994C203.126 431.327 203.561 431.493 204.059 431.493ZM215.231 431.506V422.455H217.519V431.506H215.231ZM211.849 428.124V425.836H220.901V428.124H211.849Z" fill="#081735"/>
<path d="M144.233 455.5V445.318H145.466V454.406H150.199V455.5H144.233ZM154.196 455.679C153.712 455.679 153.273 455.588 152.879 455.406C152.484 455.22 152.171 454.953 151.939 454.605C151.707 454.254 151.591 453.83 151.591 453.332C151.591 452.895 151.677 452.54 151.849 452.268C152.022 451.993 152.252 451.778 152.54 451.622C152.829 451.466 153.147 451.35 153.495 451.274C153.846 451.195 154.199 451.132 154.554 451.085C155.018 451.026 155.394 450.981 155.683 450.951C155.974 450.918 156.186 450.863 156.319 450.787C156.455 450.711 156.523 450.578 156.523 450.389V450.349C156.523 449.859 156.388 449.478 156.12 449.206C155.855 448.934 155.452 448.798 154.912 448.798C154.352 448.798 153.913 448.921 153.594 449.166C153.276 449.411 153.053 449.673 152.923 449.952L151.81 449.554C152.009 449.09 152.274 448.729 152.605 448.47C152.94 448.208 153.304 448.026 153.699 447.923C154.097 447.817 154.488 447.764 154.872 447.764C155.117 447.764 155.399 447.794 155.717 447.854C156.039 447.91 156.349 448.028 156.647 448.207C156.949 448.386 157.199 448.656 157.398 449.017C157.597 449.378 157.696 449.862 157.696 450.469V455.5H156.523V454.466H156.463C156.384 454.632 156.251 454.809 156.065 454.998C155.88 455.187 155.633 455.348 155.325 455.48C155.016 455.613 154.64 455.679 154.196 455.679ZM154.375 454.625C154.839 454.625 155.23 454.534 155.548 454.352C155.87 454.169 156.112 453.934 156.274 453.646C156.44 453.357 156.523 453.054 156.523 452.736V451.662C156.473 451.722 156.364 451.776 156.195 451.826C156.029 451.872 155.837 451.914 155.618 451.95C155.402 451.983 155.192 452.013 154.987 452.04C154.784 452.063 154.62 452.083 154.494 452.099C154.189 452.139 153.904 452.204 153.639 452.293C153.377 452.379 153.165 452.51 153.003 452.686C152.844 452.858 152.764 453.094 152.764 453.392C152.764 453.8 152.915 454.108 153.217 454.317C153.522 454.522 153.908 454.625 154.375 454.625ZM161.011 450.906V455.5H159.838V447.864H160.971V449.057H161.07C161.249 448.669 161.521 448.357 161.886 448.122C162.25 447.884 162.721 447.764 163.298 447.764C163.815 447.764 164.267 447.87 164.655 448.082C165.043 448.291 165.344 448.609 165.56 449.037C165.775 449.461 165.883 449.998 165.883 450.648V455.5H164.71V450.727C164.71 450.127 164.554 449.66 164.242 449.325C163.931 448.987 163.503 448.818 162.96 448.818C162.585 448.818 162.25 448.899 161.955 449.062C161.664 449.224 161.433 449.461 161.264 449.773C161.095 450.084 161.011 450.462 161.011 450.906ZM171.109 458.523C170.543 458.523 170.055 458.45 169.648 458.304C169.24 458.161 168.9 457.973 168.629 457.737C168.36 457.505 168.146 457.257 167.987 456.991L168.922 456.335C169.028 456.474 169.162 456.634 169.325 456.812C169.487 456.995 169.709 457.152 169.991 457.285C170.276 457.421 170.649 457.489 171.109 457.489C171.726 457.489 172.235 457.339 172.636 457.041C173.037 456.743 173.237 456.276 173.237 455.639V454.088H173.138C173.052 454.227 172.929 454.4 172.77 454.605C172.614 454.807 172.389 454.988 172.094 455.147C171.802 455.303 171.408 455.381 170.911 455.381C170.294 455.381 169.741 455.235 169.25 454.943C168.763 454.652 168.377 454.227 168.092 453.67C167.81 453.114 167.669 452.437 167.669 451.642C167.669 450.86 167.807 450.179 168.082 449.599C168.357 449.015 168.74 448.565 169.23 448.246C169.721 447.925 170.287 447.764 170.93 447.764C171.428 447.764 171.822 447.847 172.114 448.013C172.409 448.175 172.634 448.361 172.79 448.57C172.949 448.775 173.071 448.944 173.158 449.077H173.277V447.864H174.411V455.719C174.411 456.375 174.261 456.909 173.963 457.32C173.668 457.734 173.27 458.037 172.77 458.229C172.273 458.425 171.719 458.523 171.109 458.523ZM171.07 454.327C171.54 454.327 171.938 454.219 172.263 454.004C172.588 453.788 172.835 453.478 173.004 453.074C173.173 452.67 173.257 452.186 173.257 451.622C173.257 451.072 173.174 450.586 173.009 450.165C172.843 449.745 172.598 449.415 172.273 449.176C171.948 448.937 171.547 448.818 171.07 448.818C170.572 448.818 170.158 448.944 169.827 449.196C169.499 449.448 169.252 449.786 169.086 450.21C168.924 450.634 168.842 451.105 168.842 451.622C168.842 452.152 168.925 452.621 169.091 453.029C169.26 453.433 169.509 453.752 169.837 453.984C170.168 454.212 170.579 454.327 171.07 454.327ZM181.371 452.378V447.864H182.544V455.5H181.371V454.207H181.291C181.112 454.595 180.834 454.925 180.456 455.197C180.078 455.465 179.601 455.599 179.024 455.599C178.547 455.599 178.123 455.495 177.751 455.286C177.38 455.074 177.089 454.756 176.876 454.332C176.664 453.904 176.558 453.366 176.558 452.716V447.864H177.732V452.636C177.732 453.193 177.887 453.637 178.199 453.969C178.514 454.3 178.915 454.466 179.402 454.466C179.694 454.466 179.99 454.391 180.292 454.242C180.597 454.093 180.852 453.864 181.058 453.556C181.266 453.248 181.371 452.855 181.371 452.378ZM186.94 455.679C186.456 455.679 186.017 455.588 185.623 455.406C185.228 455.22 184.915 454.953 184.683 454.605C184.451 454.254 184.335 453.83 184.335 453.332C184.335 452.895 184.421 452.54 184.594 452.268C184.766 451.993 184.996 451.778 185.285 451.622C185.573 451.466 185.891 451.35 186.239 451.274C186.59 451.195 186.943 451.132 187.298 451.085C187.762 451.026 188.138 450.981 188.427 450.951C188.718 450.918 188.93 450.863 189.063 450.787C189.199 450.711 189.267 450.578 189.267 450.389V450.349C189.267 449.859 189.133 449.478 188.864 449.206C188.599 448.934 188.196 448.798 187.656 448.798C187.096 448.798 186.657 448.921 186.339 449.166C186.02 449.411 185.797 449.673 185.667 449.952L184.554 449.554C184.753 449.09 185.018 448.729 185.349 448.47C185.684 448.208 186.049 448.026 186.443 447.923C186.841 447.817 187.232 447.764 187.616 447.764C187.862 447.764 188.143 447.794 188.461 447.854C188.783 447.91 189.093 448.028 189.391 448.207C189.693 448.386 189.943 448.656 190.142 449.017C190.341 449.378 190.44 449.862 190.44 450.469V455.5H189.267V454.466H189.207C189.128 454.632 188.995 454.809 188.809 454.998C188.624 455.187 188.377 455.348 188.069 455.48C187.76 455.613 187.384 455.679 186.94 455.679ZM187.119 454.625C187.583 454.625 187.974 454.534 188.292 454.352C188.614 454.169 188.856 453.934 189.018 453.646C189.184 453.357 189.267 453.054 189.267 452.736V451.662C189.217 451.722 189.108 451.776 188.939 451.826C188.773 451.872 188.581 451.914 188.362 451.95C188.147 451.983 187.936 452.013 187.731 452.04C187.528 452.063 187.364 452.083 187.238 452.099C186.934 452.139 186.648 452.204 186.383 452.293C186.122 452.379 185.909 452.51 185.747 452.686C185.588 452.858 185.508 453.094 185.508 453.392C185.508 453.8 185.659 454.108 185.961 454.317C186.266 454.522 186.652 454.625 187.119 454.625ZM195.664 458.523C195.097 458.523 194.61 458.45 194.202 458.304C193.795 458.161 193.455 457.973 193.183 457.737C192.915 457.505 192.701 457.257 192.542 456.991L193.477 456.335C193.583 456.474 193.717 456.634 193.879 456.812C194.042 456.995 194.264 457.152 194.545 457.285C194.83 457.421 195.203 457.489 195.664 457.489C196.281 457.489 196.789 457.339 197.19 457.041C197.591 456.743 197.792 456.276 197.792 455.639V454.088H197.692C197.606 454.227 197.484 454.4 197.325 454.605C197.169 454.807 196.943 454.988 196.648 455.147C196.357 455.303 195.962 455.381 195.465 455.381C194.849 455.381 194.295 455.235 193.805 454.943C193.317 454.652 192.931 454.227 192.646 453.67C192.365 453.114 192.224 452.437 192.224 451.642C192.224 450.86 192.361 450.179 192.636 449.599C192.911 449.015 193.294 448.565 193.785 448.246C194.275 447.925 194.842 447.764 195.485 447.764C195.982 447.764 196.377 447.847 196.668 448.013C196.963 448.175 197.189 448.361 197.344 448.57C197.504 448.775 197.626 448.944 197.712 449.077H197.832V447.864H198.965V455.719C198.965 456.375 198.816 456.909 198.518 457.32C198.223 457.734 197.825 458.037 197.325 458.229C196.827 458.425 196.274 458.523 195.664 458.523ZM195.624 454.327C196.095 454.327 196.493 454.219 196.817 454.004C197.142 453.788 197.389 453.478 197.558 453.074C197.727 452.67 197.812 452.186 197.812 451.622C197.812 451.072 197.729 450.586 197.563 450.165C197.397 449.745 197.152 449.415 196.827 449.176C196.503 448.937 196.102 448.818 195.624 448.818C195.127 448.818 194.713 448.944 194.381 449.196C194.053 449.448 193.806 449.786 193.641 450.21C193.478 450.634 193.397 451.105 193.397 451.622C193.397 452.152 193.48 452.621 193.646 453.029C193.815 453.433 194.063 453.752 194.391 453.984C194.723 454.212 195.134 454.327 195.624 454.327ZM204.315 455.659C203.579 455.659 202.944 455.497 202.411 455.172C201.88 454.844 201.471 454.386 201.183 453.8C200.897 453.21 200.755 452.524 200.755 451.741C200.755 450.959 200.897 450.27 201.183 449.673C201.471 449.073 201.872 448.606 202.386 448.271C202.903 447.933 203.506 447.764 204.195 447.764C204.593 447.764 204.986 447.83 205.374 447.963C205.761 448.096 206.114 448.311 206.433 448.609C206.751 448.904 207.004 449.295 207.193 449.783C207.382 450.27 207.477 450.87 207.477 451.582V452.08H201.59V451.065H206.283C206.283 450.634 206.197 450.25 206.025 449.912C205.856 449.574 205.614 449.307 205.299 449.112C204.987 448.916 204.62 448.818 204.195 448.818C203.728 448.818 203.324 448.934 202.982 449.166C202.644 449.395 202.384 449.693 202.202 450.061C202.019 450.429 201.928 450.823 201.928 451.244V451.92C201.928 452.497 202.028 452.986 202.227 453.387C202.429 453.785 202.709 454.088 203.067 454.297C203.425 454.502 203.841 454.605 204.315 454.605C204.623 454.605 204.901 454.562 205.15 454.476C205.402 454.386 205.619 454.254 205.801 454.078C205.983 453.899 206.124 453.677 206.224 453.412L207.357 453.73C207.238 454.115 207.037 454.453 206.756 454.744C206.474 455.033 206.126 455.258 205.712 455.42C205.297 455.58 204.832 455.659 204.315 455.659ZM218.926 447.864C218.866 447.36 218.625 446.969 218.2 446.69C217.776 446.412 217.256 446.273 216.639 446.273C216.188 446.273 215.794 446.346 215.456 446.491C215.121 446.637 214.859 446.838 214.67 447.093C214.485 447.348 214.392 447.638 214.392 447.963C214.392 448.235 214.457 448.469 214.586 448.664C214.719 448.856 214.888 449.017 215.093 449.146C215.299 449.272 215.514 449.377 215.739 449.46C215.965 449.539 216.172 449.604 216.361 449.653L217.395 449.932C217.66 450.001 217.955 450.098 218.28 450.22C218.608 450.343 218.921 450.51 219.219 450.722C219.521 450.931 219.77 451.2 219.965 451.528C220.161 451.856 220.259 452.259 220.259 452.736C220.259 453.286 220.114 453.783 219.826 454.227C219.541 454.671 219.123 455.024 218.573 455.286C218.026 455.548 217.362 455.679 216.58 455.679C215.85 455.679 215.219 455.561 214.685 455.326C214.155 455.091 213.737 454.763 213.433 454.342C213.131 453.921 212.96 453.432 212.92 452.875H214.193C214.226 453.259 214.356 453.578 214.581 453.83C214.81 454.078 215.098 454.264 215.446 454.386C215.797 454.506 216.175 454.565 216.58 454.565C217.05 454.565 217.473 454.489 217.847 454.337C218.222 454.181 218.518 453.965 218.737 453.69C218.956 453.412 219.065 453.087 219.065 452.716C219.065 452.378 218.971 452.103 218.782 451.891C218.593 451.679 218.344 451.506 218.036 451.374C217.728 451.241 217.395 451.125 217.037 451.026L215.784 450.668C214.989 450.439 214.359 450.112 213.895 449.688C213.431 449.264 213.199 448.709 213.199 448.023C213.199 447.453 213.353 446.955 213.661 446.531C213.973 446.104 214.39 445.772 214.914 445.537C215.441 445.298 216.029 445.179 216.679 445.179C217.335 445.179 217.919 445.297 218.429 445.532C218.939 445.764 219.344 446.082 219.642 446.487C219.944 446.891 220.103 447.35 220.119 447.864H218.926ZM226.939 452.378V447.864H228.112V455.5H226.939V454.207H226.86C226.681 454.595 226.402 454.925 226.024 455.197C225.646 455.465 225.169 455.599 224.593 455.599C224.115 455.599 223.691 455.495 223.32 455.286C222.949 455.074 222.657 454.756 222.445 454.332C222.233 453.904 222.127 453.366 222.127 452.716V447.864H223.3V452.636C223.3 453.193 223.456 453.637 223.767 453.969C224.082 454.3 224.483 454.466 224.97 454.466C225.262 454.466 225.559 454.391 225.86 454.242C226.165 454.093 226.42 453.864 226.626 453.556C226.835 453.248 226.939 452.855 226.939 452.378ZM230.261 458.364V447.864H231.395V449.077H231.534C231.62 448.944 231.74 448.775 231.892 448.57C232.048 448.361 232.27 448.175 232.558 448.013C232.85 447.847 233.244 447.764 233.741 447.764C234.384 447.764 234.951 447.925 235.442 448.246C235.932 448.568 236.315 449.024 236.59 449.614C236.865 450.204 237.003 450.9 237.003 451.702C237.003 452.51 236.865 453.211 236.59 453.805C236.315 454.395 235.934 454.852 235.447 455.177C234.96 455.498 234.398 455.659 233.761 455.659C233.271 455.659 232.878 455.578 232.583 455.415C232.288 455.25 232.061 455.062 231.902 454.854C231.743 454.642 231.62 454.466 231.534 454.327H231.435V458.364H230.261ZM231.415 451.682C231.415 452.259 231.499 452.767 231.668 453.208C231.837 453.646 232.084 453.989 232.409 454.237C232.734 454.482 233.132 454.605 233.602 454.605C234.093 454.605 234.502 454.476 234.83 454.217C235.162 453.955 235.41 453.604 235.576 453.163C235.745 452.719 235.83 452.225 235.83 451.682C235.83 451.145 235.747 450.661 235.581 450.23C235.419 449.796 235.172 449.453 234.84 449.201C234.512 448.946 234.099 448.818 233.602 448.818C233.125 448.818 232.724 448.939 232.399 449.181C232.074 449.42 231.829 449.754 231.663 450.185C231.498 450.613 231.415 451.112 231.415 451.682ZM238.793 458.364V447.864H239.926V449.077H240.065C240.152 448.944 240.271 448.775 240.423 448.57C240.579 448.361 240.801 448.175 241.089 448.013C241.381 447.847 241.776 447.764 242.273 447.764C242.916 447.764 243.482 447.925 243.973 448.246C244.464 448.568 244.846 449.024 245.121 449.614C245.397 450.204 245.534 450.9 245.534 451.702C245.534 452.51 245.397 453.211 245.121 453.805C244.846 454.395 244.465 454.852 243.978 455.177C243.491 455.498 242.929 455.659 242.293 455.659C241.802 455.659 241.409 455.578 241.114 455.415C240.819 455.25 240.592 455.062 240.433 454.854C240.274 454.642 240.152 454.466 240.065 454.327H239.966V458.364H238.793ZM239.946 451.682C239.946 452.259 240.031 452.767 240.2 453.208C240.369 453.646 240.616 453.989 240.94 454.237C241.265 454.482 241.663 454.605 242.134 454.605C242.624 454.605 243.033 454.476 243.362 454.217C243.693 453.955 243.942 453.604 244.107 453.163C244.276 452.719 244.361 452.225 244.361 451.682C244.361 451.145 244.278 450.661 244.112 450.23C243.95 449.796 243.703 449.453 243.371 449.201C243.043 448.946 242.631 448.818 242.134 448.818C241.656 448.818 241.255 448.939 240.93 449.181C240.606 449.42 240.36 449.754 240.195 450.185C240.029 450.613 239.946 451.112 239.946 451.682ZM250.426 455.659C249.737 455.659 249.132 455.495 248.612 455.167C248.094 454.839 247.69 454.38 247.398 453.79C247.11 453.2 246.966 452.51 246.966 451.722C246.966 450.926 247.11 450.232 247.398 449.638C247.69 449.045 248.094 448.585 248.612 448.256C249.132 447.928 249.737 447.764 250.426 447.764C251.116 447.764 251.719 447.928 252.236 448.256C252.756 448.585 253.161 449.045 253.449 449.638C253.741 450.232 253.886 450.926 253.886 451.722C253.886 452.51 253.741 453.2 253.449 453.79C253.161 454.38 252.756 454.839 252.236 455.167C251.719 455.495 251.116 455.659 250.426 455.659ZM250.426 454.605C250.95 454.605 251.381 454.471 251.719 454.202C252.057 453.934 252.307 453.581 252.469 453.143C252.632 452.706 252.713 452.232 252.713 451.722C252.713 451.211 252.632 450.736 252.469 450.295C252.307 449.854 252.057 449.498 251.719 449.226C251.381 448.954 250.95 448.818 250.426 448.818C249.902 448.818 249.472 448.954 249.134 449.226C248.795 449.498 248.545 449.854 248.383 450.295C248.22 450.736 248.139 451.211 248.139 451.722C248.139 452.232 248.22 452.706 248.383 453.143C248.545 453.581 248.795 453.934 249.134 454.202C249.472 454.471 249.902 454.605 250.426 454.605ZM255.677 455.5V447.864H256.811V449.017H256.89C257.03 448.639 257.282 448.333 257.646 448.097C258.011 447.862 258.422 447.744 258.879 447.744C258.965 447.744 259.073 447.746 259.202 447.749C259.331 447.753 259.429 447.758 259.496 447.764V448.957C259.456 448.947 259.365 448.933 259.222 448.913C259.083 448.889 258.935 448.878 258.78 448.878C258.408 448.878 258.077 448.956 257.785 449.112C257.497 449.264 257.268 449.476 257.099 449.748C256.934 450.016 256.851 450.323 256.851 450.668V455.5H255.677ZM264.686 447.864V448.858H260.729V447.864H264.686ZM261.882 446.034H263.055V453.312C263.055 453.644 263.103 453.893 263.199 454.058C263.299 454.221 263.425 454.33 263.577 454.386C263.733 454.439 263.897 454.466 264.069 454.466C264.199 454.466 264.305 454.459 264.388 454.446C264.47 454.429 264.537 454.416 264.586 454.406L264.825 455.46C264.746 455.49 264.635 455.52 264.492 455.55C264.349 455.583 264.169 455.599 263.95 455.599C263.619 455.599 263.294 455.528 262.976 455.386C262.661 455.243 262.399 455.026 262.19 454.734C261.985 454.443 261.882 454.075 261.882 453.631V446.034Z" fill="#171717"/>
<path d="M332.756 420.409V433.5H329.989V423.036H329.912L326.914 424.915V422.461L330.155 420.409H332.756ZM341.001 433.788C339.901 433.783 338.955 433.513 338.162 432.976C337.374 432.439 336.767 431.661 336.341 430.643C335.919 429.624 335.71 428.399 335.714 426.967C335.714 425.54 335.925 424.323 336.347 423.317C336.773 422.312 337.381 421.547 338.169 421.023C338.961 420.494 339.905 420.23 341.001 420.23C342.096 420.23 343.037 420.494 343.826 421.023C344.618 421.551 345.228 422.318 345.654 423.324C346.08 424.325 346.291 425.54 346.287 426.967C346.287 428.403 346.074 429.631 345.648 430.649C345.226 431.668 344.621 432.445 343.832 432.982C343.044 433.519 342.1 433.788 341.001 433.788ZM341.001 431.493C341.751 431.493 342.349 431.116 342.797 430.362C343.244 429.607 343.466 428.476 343.461 426.967C343.461 425.974 343.359 425.148 343.155 424.487C342.954 423.827 342.669 423.33 342.298 422.998C341.932 422.665 341.499 422.499 341.001 422.499C340.255 422.499 339.658 422.872 339.211 423.618C338.763 424.364 338.537 425.48 338.533 426.967C338.533 427.973 338.633 428.812 338.834 429.486C339.038 430.155 339.326 430.658 339.697 430.994C340.067 431.327 340.502 431.493 341.001 431.493ZM348.337 433.5V420.409H351.105V426.181H351.277L355.988 420.409H359.306L354.448 426.271L359.363 433.5H356.052L352.466 428.118L351.105 429.78V433.5H348.337ZM363.791 431.506V422.455H366.08V431.506H363.791ZM360.41 428.124V425.836H369.461V428.124H360.41Z" fill="#081735"/>
<path d="M315.875 455.5H312.733V445.318H316.014C317.002 445.318 317.847 445.522 318.55 445.93C319.252 446.334 319.791 446.916 320.165 447.675C320.54 448.43 320.727 449.335 320.727 450.389C320.727 451.45 320.538 452.363 320.161 453.129C319.783 453.891 319.232 454.478 318.51 454.888C317.787 455.296 316.909 455.5 315.875 455.5ZM313.966 454.406H315.795C316.637 454.406 317.335 454.244 317.888 453.919C318.442 453.594 318.855 453.132 319.126 452.532C319.398 451.932 319.534 451.218 319.534 450.389C319.534 449.567 319.4 448.86 319.131 448.266C318.863 447.67 318.462 447.212 317.928 446.894C317.395 446.573 316.73 446.412 315.935 446.412H313.966V454.406ZM325.838 455.659C325.102 455.659 324.468 455.497 323.934 455.172C323.404 454.844 322.994 454.386 322.706 453.8C322.421 453.21 322.278 452.524 322.278 451.741C322.278 450.959 322.421 450.27 322.706 449.673C322.994 449.073 323.395 448.606 323.909 448.271C324.426 447.933 325.029 447.764 325.719 447.764C326.116 447.764 326.509 447.83 326.897 447.963C327.285 448.096 327.638 448.311 327.956 448.609C328.274 448.904 328.528 449.295 328.717 449.783C328.906 450.27 329 450.87 329 451.582V452.08H323.114V451.065H327.807C327.807 450.634 327.721 450.25 327.548 449.912C327.379 449.574 327.137 449.307 326.822 449.112C326.511 448.916 326.143 448.818 325.719 448.818C325.251 448.818 324.847 448.934 324.506 449.166C324.168 449.395 323.907 449.693 323.725 450.061C323.543 450.429 323.452 450.823 323.452 451.244V451.92C323.452 452.497 323.551 452.986 323.75 453.387C323.952 453.785 324.232 454.088 324.59 454.297C324.948 454.502 325.364 454.605 325.838 454.605C326.146 454.605 326.425 454.562 326.673 454.476C326.925 454.386 327.142 454.254 327.325 454.078C327.507 453.899 327.648 453.677 327.747 453.412L328.881 453.73C328.761 454.115 328.561 454.453 328.279 454.744C327.997 455.033 327.649 455.258 327.235 455.42C326.821 455.58 326.355 455.659 325.838 455.659ZM336.797 447.864L333.973 455.5H332.78L329.956 447.864H331.229L333.336 453.949H333.416L335.524 447.864H336.797ZM341.274 455.659C340.538 455.659 339.903 455.497 339.369 455.172C338.839 454.844 338.43 454.386 338.142 453.8C337.856 453.21 337.714 452.524 337.714 451.741C337.714 450.959 337.856 450.27 338.142 449.673C338.43 449.073 338.831 448.606 339.345 448.271C339.862 447.933 340.465 447.764 341.154 447.764C341.552 447.764 341.945 447.83 342.333 447.963C342.72 448.096 343.073 448.311 343.392 448.609C343.71 448.904 343.963 449.295 344.152 449.783C344.341 450.27 344.436 450.87 344.436 451.582V452.08H338.549V451.065H343.242C343.242 450.634 343.156 450.25 342.984 449.912C342.815 449.574 342.573 449.307 342.258 449.112C341.946 448.916 341.579 448.818 341.154 448.818C340.687 448.818 340.283 448.934 339.941 449.166C339.603 449.395 339.343 449.693 339.161 450.061C338.978 450.429 338.887 450.823 338.887 451.244V451.92C338.887 452.497 338.987 452.986 339.186 453.387C339.388 453.785 339.668 454.088 340.026 454.297C340.384 454.502 340.8 454.605 341.274 454.605C341.582 454.605 341.86 454.562 342.109 454.476C342.361 454.386 342.578 454.254 342.76 454.078C342.942 453.899 343.083 453.677 343.183 453.412L344.316 453.73C344.197 454.115 343.996 454.453 343.715 454.744C343.433 455.033 343.085 455.258 342.671 455.42C342.256 455.58 341.791 455.659 341.274 455.659ZM347.394 445.318V455.5H346.22V445.318H347.394ZM352.645 455.659C351.955 455.659 351.351 455.495 350.83 455.167C350.313 454.839 349.909 454.38 349.617 453.79C349.329 453.2 349.185 452.51 349.185 451.722C349.185 450.926 349.329 450.232 349.617 449.638C349.909 449.045 350.313 448.585 350.83 448.256C351.351 447.928 351.955 447.764 352.645 447.764C353.334 447.764 353.938 447.928 354.455 448.256C354.975 448.585 355.379 449.045 355.668 449.638C355.959 450.232 356.105 450.926 356.105 451.722C356.105 452.51 355.959 453.2 355.668 453.79C355.379 454.38 354.975 454.839 354.455 455.167C353.938 455.495 353.334 455.659 352.645 455.659ZM352.645 454.605C353.169 454.605 353.599 454.471 353.938 454.202C354.276 453.934 354.526 453.581 354.688 453.143C354.851 452.706 354.932 452.232 354.932 451.722C354.932 451.211 354.851 450.736 354.688 450.295C354.526 449.854 354.276 449.498 353.938 449.226C353.599 448.954 353.169 448.818 352.645 448.818C352.121 448.818 351.69 448.954 351.352 449.226C351.014 449.498 350.764 449.854 350.602 450.295C350.439 450.736 350.358 451.211 350.358 451.722C350.358 452.232 350.439 452.706 350.602 453.143C350.764 453.581 351.014 453.934 351.352 454.202C351.69 454.471 352.121 454.605 352.645 454.605ZM357.896 458.364V447.864H359.03V449.077H359.169C359.255 448.944 359.374 448.775 359.527 448.57C359.683 448.361 359.905 448.175 360.193 448.013C360.485 447.847 360.879 447.764 361.376 447.764C362.019 447.764 362.586 447.925 363.077 448.246C363.567 448.568 363.95 449.024 364.225 449.614C364.5 450.204 364.638 450.9 364.638 451.702C364.638 452.51 364.5 453.211 364.225 453.805C363.95 454.395 363.569 454.852 363.081 455.177C362.594 455.498 362.032 455.659 361.396 455.659C360.906 455.659 360.513 455.578 360.218 455.415C359.923 455.25 359.696 455.062 359.537 454.854C359.378 454.642 359.255 454.466 359.169 454.327H359.069V458.364H357.896ZM359.05 451.682C359.05 452.259 359.134 452.767 359.303 453.208C359.472 453.646 359.719 453.989 360.044 454.237C360.369 454.482 360.766 454.605 361.237 454.605C361.728 454.605 362.137 454.476 362.465 454.217C362.796 453.955 363.045 453.604 363.211 453.163C363.38 452.719 363.464 452.225 363.464 451.682C363.464 451.145 363.381 450.661 363.216 450.23C363.053 449.796 362.806 449.453 362.475 449.201C362.147 448.946 361.734 448.818 361.237 448.818C360.76 448.818 360.359 448.939 360.034 449.181C359.709 449.42 359.464 449.754 359.298 450.185C359.132 450.613 359.05 451.112 359.05 451.682ZM369.629 455.659C368.893 455.659 368.259 455.497 367.725 455.172C367.195 454.844 366.785 454.386 366.497 453.8C366.212 453.21 366.069 452.524 366.069 451.741C366.069 450.959 366.212 450.27 366.497 449.673C366.785 449.073 367.186 448.606 367.7 448.271C368.217 447.933 368.82 447.764 369.51 447.764C369.907 447.764 370.3 447.83 370.688 447.963C371.076 448.096 371.429 448.311 371.747 448.609C372.065 448.904 372.319 449.295 372.508 449.783C372.697 450.27 372.791 450.87 372.791 451.582V452.08H366.905V451.065H371.598C371.598 450.634 371.512 450.25 371.339 449.912C371.17 449.574 370.928 449.307 370.613 449.112C370.302 448.916 369.934 448.818 369.51 448.818C369.042 448.818 368.638 448.934 368.297 449.166C367.959 449.395 367.698 449.693 367.516 450.061C367.334 450.429 367.243 450.823 367.243 451.244V451.92C367.243 452.497 367.342 452.986 367.541 453.387C367.743 453.785 368.023 454.088 368.381 454.297C368.739 454.502 369.155 454.605 369.629 454.605C369.937 454.605 370.216 454.562 370.464 454.476C370.716 454.386 370.933 454.254 371.116 454.078C371.298 453.899 371.439 453.677 371.538 453.412L372.672 453.73C372.552 454.115 372.352 454.453 372.07 454.744C371.788 455.033 371.44 455.258 371.026 455.42C370.612 455.58 370.146 455.659 369.629 455.659ZM374.576 455.5V447.864H375.709V449.017H375.789C375.928 448.639 376.18 448.333 376.545 448.097C376.909 447.862 377.32 447.744 377.778 447.744C377.864 447.744 377.971 447.746 378.101 447.749C378.23 447.753 378.328 447.758 378.394 447.764V448.957C378.354 448.947 378.263 448.933 378.121 448.913C377.981 448.889 377.834 448.878 377.678 448.878C377.307 448.878 376.975 448.956 376.684 449.112C376.395 449.264 376.167 449.476 375.998 449.748C375.832 450.016 375.749 450.323 375.749 450.668V455.5H374.576ZM385.194 449.574L384.14 449.872C384.074 449.696 383.976 449.526 383.847 449.36C383.721 449.191 383.548 449.052 383.33 448.942C383.111 448.833 382.831 448.778 382.489 448.778C382.022 448.778 381.633 448.886 381.321 449.102C381.013 449.314 380.859 449.584 380.859 449.912C380.859 450.204 380.965 450.434 381.177 450.603C381.389 450.772 381.72 450.913 382.171 451.026L383.305 451.304C383.987 451.47 384.496 451.723 384.831 452.065C385.166 452.403 385.333 452.839 385.333 453.372C385.333 453.81 385.207 454.201 384.955 454.545C384.707 454.89 384.359 455.162 383.911 455.361C383.464 455.56 382.943 455.659 382.35 455.659C381.571 455.659 380.927 455.49 380.416 455.152C379.906 454.814 379.583 454.32 379.447 453.67L380.56 453.392C380.666 453.803 380.867 454.111 381.162 454.317C381.46 454.522 381.85 454.625 382.33 454.625C382.877 454.625 383.311 454.509 383.633 454.277C383.958 454.042 384.12 453.76 384.12 453.432C384.12 453.167 384.027 452.945 383.842 452.766C383.656 452.583 383.371 452.447 382.987 452.358L381.714 452.06C381.014 451.894 380.501 451.637 380.173 451.289C379.848 450.938 379.685 450.499 379.685 449.972C379.685 449.541 379.806 449.16 380.048 448.828C380.294 448.497 380.627 448.237 381.048 448.048C381.472 447.859 381.952 447.764 382.489 447.764C383.245 447.764 383.838 447.93 384.269 448.261C384.703 448.593 385.012 449.03 385.194 449.574Z" fill="#171717"/>
<path d="M463.756 420.409V433.5H460.989V423.036H460.912L457.914 424.915V422.461L461.155 420.409H463.756ZM472.001 433.788C470.901 433.783 469.955 433.513 469.162 432.976C468.374 432.439 467.767 431.661 467.341 430.643C466.919 429.624 466.71 428.399 466.714 426.967C466.714 425.54 466.925 424.323 467.347 423.317C467.773 422.312 468.381 421.547 469.169 421.023C469.961 420.494 470.905 420.23 472.001 420.23C473.096 420.23 474.037 420.494 474.826 421.023C475.618 421.551 476.228 422.318 476.654 423.324C477.08 424.325 477.291 425.54 477.287 426.967C477.287 428.403 477.074 429.631 476.648 430.649C476.226 431.668 475.621 432.445 474.832 432.982C474.044 433.519 473.1 433.788 472.001 433.788ZM472.001 431.493C472.751 431.493 473.349 431.116 473.797 430.362C474.244 429.607 474.466 428.476 474.461 426.967C474.461 425.974 474.359 425.148 474.155 424.487C473.954 423.827 473.669 423.33 473.298 422.998C472.932 422.665 472.499 422.499 472.001 422.499C471.255 422.499 470.658 422.872 470.211 423.618C469.763 424.364 469.537 425.48 469.533 426.967C469.533 427.973 469.633 428.812 469.834 429.486C470.038 430.155 470.326 430.658 470.697 430.994C471.067 431.327 471.502 431.493 472.001 431.493ZM484.393 433.788C483.294 433.783 482.348 433.513 481.555 432.976C480.767 432.439 480.159 431.661 479.733 430.643C479.311 429.624 479.103 428.399 479.107 426.967C479.107 425.54 479.318 424.323 479.74 423.317C480.166 422.312 480.773 421.547 481.561 421.023C482.354 420.494 483.298 420.23 484.393 420.23C485.488 420.23 486.43 420.494 487.218 421.023C488.011 421.551 488.62 422.318 489.047 423.324C489.473 424.325 489.684 425.54 489.679 426.967C489.679 428.403 489.466 429.631 489.04 430.649C488.618 431.668 488.013 432.445 487.225 432.982C486.436 433.519 485.493 433.788 484.393 433.788ZM484.393 431.493C485.143 431.493 485.742 431.116 486.189 430.362C486.637 429.607 486.858 428.476 486.854 426.967C486.854 425.974 486.752 425.148 486.547 424.487C486.347 423.827 486.061 423.33 485.691 422.998C485.324 422.665 484.892 422.499 484.393 422.499C483.647 422.499 483.051 422.872 482.603 423.618C482.156 424.364 481.93 425.48 481.926 426.967C481.926 427.973 482.026 428.812 482.226 429.486C482.431 430.155 482.718 430.658 483.089 430.994C483.46 431.327 483.895 431.493 484.393 431.493ZM491.73 433.5V420.409H494.497V426.181H494.67L499.381 420.409H502.698L497.84 426.271L502.756 433.5H499.445L495.859 428.118L494.497 429.78V433.5H491.73ZM507.184 431.506V422.455H509.472V431.506H507.184ZM503.803 428.124V425.836H512.854V428.124H503.803Z" fill="#081735"/>
<path d="M444.733 455.5V445.318H445.966V449.852H451.395V445.318H452.628V455.5H451.395V450.946H445.966V455.5H444.733ZM458.039 455.659C457.35 455.659 456.745 455.495 456.225 455.167C455.708 454.839 455.303 454.38 455.012 453.79C454.723 453.2 454.579 452.51 454.579 451.722C454.579 450.926 454.723 450.232 455.012 449.638C455.303 449.045 455.708 448.585 456.225 448.256C456.745 447.928 457.35 447.764 458.039 447.764C458.729 447.764 459.332 447.928 459.849 448.256C460.369 448.585 460.774 449.045 461.062 449.638C461.354 450.232 461.5 450.926 461.5 451.722C461.5 452.51 461.354 453.2 461.062 453.79C460.774 454.38 460.369 454.839 459.849 455.167C459.332 455.495 458.729 455.659 458.039 455.659ZM458.039 454.605C458.563 454.605 458.994 454.471 459.332 454.202C459.67 453.934 459.92 453.581 460.083 453.143C460.245 452.706 460.326 452.232 460.326 451.722C460.326 451.211 460.245 450.736 460.083 450.295C459.92 449.854 459.67 449.498 459.332 449.226C458.994 448.954 458.563 448.818 458.039 448.818C457.516 448.818 457.085 448.954 456.747 449.226C456.409 449.498 456.158 449.854 455.996 450.295C455.834 450.736 455.752 451.211 455.752 451.722C455.752 452.232 455.834 452.706 455.996 453.143C456.158 453.581 456.409 453.934 456.747 454.202C457.085 454.471 457.516 454.605 458.039 454.605ZM468.103 452.378V447.864H469.276V455.5H468.103V454.207H468.024C467.845 454.595 467.566 454.925 467.188 455.197C466.811 455.465 466.333 455.599 465.757 455.599C465.279 455.599 464.855 455.495 464.484 455.286C464.113 455.074 463.821 454.756 463.609 454.332C463.397 453.904 463.291 453.366 463.291 452.716V447.864H464.464V452.636C464.464 453.193 464.62 453.637 464.931 453.969C465.246 454.3 465.647 454.466 466.134 454.466C466.426 454.466 466.723 454.391 467.024 454.242C467.329 454.093 467.584 453.864 467.79 453.556C467.999 453.248 468.103 452.855 468.103 452.378ZM471.425 455.5V447.864H472.559V449.017H472.638C472.778 448.639 473.03 448.333 473.394 448.097C473.759 447.862 474.17 447.744 474.627 447.744C474.713 447.744 474.821 447.746 474.95 447.749C475.08 447.753 475.177 447.758 475.244 447.764V448.957C475.204 448.947 475.113 448.933 474.97 448.913C474.831 448.889 474.683 448.878 474.528 448.878C474.156 448.878 473.825 448.956 473.533 449.112C473.245 449.264 473.016 449.476 472.847 449.748C472.682 450.016 472.599 450.323 472.599 450.668V455.5H471.425ZM482.044 449.574L480.99 449.872C480.923 449.696 480.825 449.526 480.696 449.36C480.57 449.191 480.398 449.052 480.179 448.942C479.96 448.833 479.68 448.778 479.339 448.778C478.872 448.778 478.482 448.886 478.171 449.102C477.862 449.314 477.708 449.584 477.708 449.912C477.708 450.204 477.814 450.434 478.026 450.603C478.239 450.772 478.57 450.913 479.021 451.026L480.154 451.304C480.837 451.47 481.346 451.723 481.681 452.065C482.015 452.403 482.183 452.839 482.183 453.372C482.183 453.81 482.057 454.201 481.805 454.545C481.556 454.89 481.208 455.162 480.761 455.361C480.313 455.56 479.793 455.659 479.2 455.659C478.421 455.659 477.776 455.49 477.266 455.152C476.755 454.814 476.432 454.32 476.296 453.67L477.41 453.392C477.516 453.803 477.717 454.111 478.012 454.317C478.31 454.522 478.699 454.625 479.18 454.625C479.727 454.625 480.161 454.509 480.482 454.277C480.807 454.042 480.97 453.76 480.97 453.432C480.97 453.167 480.877 452.945 480.691 452.766C480.506 452.583 480.221 452.447 479.836 452.358L478.563 452.06C477.864 451.894 477.35 451.637 477.022 451.289C476.697 450.938 476.535 450.499 476.535 449.972C476.535 449.541 476.656 449.16 476.898 448.828C477.143 448.497 477.476 448.237 477.897 448.048C478.321 447.859 478.802 447.764 479.339 447.764C480.095 447.764 480.688 447.93 481.119 448.261C481.553 448.593 481.861 449.03 482.044 449.574ZM493.614 447.864C493.554 447.36 493.312 446.969 492.888 446.69C492.464 446.412 491.943 446.273 491.327 446.273C490.876 446.273 490.482 446.346 490.143 446.491C489.809 446.637 489.547 446.838 489.358 447.093C489.172 447.348 489.08 447.638 489.08 447.963C489.08 448.235 489.144 448.469 489.273 448.664C489.406 448.856 489.575 449.017 489.781 449.146C489.986 449.272 490.201 449.377 490.427 449.46C490.652 449.539 490.859 449.604 491.048 449.653L492.082 449.932C492.348 450.001 492.643 450.098 492.967 450.22C493.295 450.343 493.609 450.51 493.907 450.722C494.209 450.931 494.457 451.2 494.653 451.528C494.848 451.856 494.946 452.259 494.946 452.736C494.946 453.286 494.802 453.783 494.513 454.227C494.228 454.671 493.811 455.024 493.261 455.286C492.714 455.548 492.049 455.679 491.267 455.679C490.538 455.679 489.906 455.561 489.373 455.326C488.843 455.091 488.425 454.763 488.12 454.342C487.818 453.921 487.648 453.432 487.608 452.875H488.881C488.914 453.259 489.043 453.578 489.268 453.83C489.497 454.078 489.786 454.264 490.134 454.386C490.485 454.506 490.863 454.565 491.267 454.565C491.738 454.565 492.16 454.489 492.535 454.337C492.909 454.181 493.206 453.965 493.425 453.69C493.643 453.412 493.753 453.087 493.753 452.716C493.753 452.378 493.658 452.103 493.469 451.891C493.281 451.679 493.032 451.506 492.724 451.374C492.415 451.241 492.082 451.125 491.724 451.026L490.472 450.668C489.676 450.439 489.046 450.112 488.582 449.688C488.118 449.264 487.886 448.709 487.886 448.023C487.886 447.453 488.04 446.955 488.349 446.531C488.66 446.104 489.078 445.772 489.602 445.537C490.129 445.298 490.717 445.179 491.366 445.179C492.023 445.179 492.606 445.297 493.116 445.532C493.627 445.764 494.031 446.082 494.33 446.487C494.631 446.891 494.79 447.35 494.807 447.864H493.614ZM499.061 455.679C498.577 455.679 498.138 455.588 497.744 455.406C497.349 455.22 497.036 454.953 496.804 454.605C496.572 454.254 496.456 453.83 496.456 453.332C496.456 452.895 496.542 452.54 496.715 452.268C496.887 451.993 497.117 451.778 497.406 451.622C497.694 451.466 498.012 451.35 498.36 451.274C498.712 451.195 499.065 451.132 499.419 451.085C499.883 451.026 500.259 450.981 500.548 450.951C500.839 450.918 501.052 450.863 501.184 450.787C501.32 450.711 501.388 450.578 501.388 450.389V450.349C501.388 449.859 501.254 449.478 500.985 449.206C500.72 448.934 500.317 448.798 499.777 448.798C499.217 448.798 498.778 448.921 498.46 449.166C498.142 449.411 497.918 449.673 497.789 449.952L496.675 449.554C496.874 449.09 497.139 448.729 497.47 448.47C497.805 448.208 498.17 448.026 498.564 447.923C498.962 447.817 499.353 447.764 499.737 447.764C499.983 447.764 500.264 447.794 500.583 447.854C500.904 447.91 501.214 448.028 501.512 448.207C501.814 448.386 502.064 448.656 502.263 449.017C502.462 449.378 502.561 449.862 502.561 450.469V455.5H501.388V454.466H501.328C501.249 454.632 501.116 454.809 500.931 454.998C500.745 455.187 500.498 455.348 500.19 455.48C499.882 455.613 499.505 455.679 499.061 455.679ZM499.24 454.625C499.704 454.625 500.095 454.534 500.414 454.352C500.735 454.169 500.977 453.934 501.139 453.646C501.305 453.357 501.388 453.054 501.388 452.736V451.662C501.338 451.722 501.229 451.776 501.06 451.826C500.894 451.872 500.702 451.914 500.483 451.95C500.268 451.983 500.057 452.013 499.852 452.04C499.65 452.063 499.485 452.083 499.36 452.099C499.055 452.139 498.77 452.204 498.504 452.293C498.243 452.379 498.03 452.51 497.868 452.686C497.709 452.858 497.629 453.094 497.629 453.392C497.629 453.8 497.78 454.108 498.082 454.317C498.387 454.522 498.773 454.625 499.24 454.625ZM510.674 447.864L507.85 455.5H506.657L503.833 447.864H505.105L507.213 453.949H507.293L509.401 447.864H510.674ZM515.151 455.659C514.415 455.659 513.78 455.497 513.246 455.172C512.716 454.844 512.307 454.386 512.018 453.8C511.733 453.21 511.591 452.524 511.591 451.741C511.591 450.959 511.733 450.27 512.018 449.673C512.307 449.073 512.708 448.606 513.222 448.271C513.739 447.933 514.342 447.764 515.031 447.764C515.429 447.764 515.822 447.83 516.21 447.963C516.597 448.096 516.95 448.311 517.268 448.609C517.587 448.904 517.84 449.295 518.029 449.783C518.218 450.27 518.312 450.87 518.312 451.582V452.08H512.426V451.065H517.119C517.119 450.634 517.033 450.25 516.861 449.912C516.692 449.574 516.45 449.307 516.135 449.112C515.823 448.916 515.455 448.818 515.031 448.818C514.564 448.818 514.16 448.934 513.818 449.166C513.48 449.395 513.22 449.693 513.038 450.061C512.855 450.429 512.764 450.823 512.764 451.244V451.92C512.764 452.497 512.864 452.986 513.062 453.387C513.265 453.785 513.545 454.088 513.903 454.297C514.261 454.502 514.677 454.605 515.151 454.605C515.459 454.605 515.737 454.562 515.986 454.476C516.238 454.386 516.455 454.254 516.637 454.078C516.819 453.899 516.96 453.677 517.06 453.412L518.193 453.73C518.074 454.115 517.873 454.453 517.592 454.744C517.31 455.033 516.962 455.258 516.548 455.42C516.133 455.58 515.668 455.659 515.151 455.659ZM522.981 455.659C522.344 455.659 521.783 455.498 521.295 455.177C520.808 454.852 520.427 454.395 520.152 453.805C519.877 453.211 519.739 452.51 519.739 451.702C519.739 450.9 519.877 450.204 520.152 449.614C520.427 449.024 520.81 448.568 521.3 448.246C521.791 447.925 522.358 447.764 523.001 447.764C523.498 447.764 523.891 447.847 524.179 448.013C524.471 448.175 524.693 448.361 524.845 448.57C525.001 448.775 525.122 448.944 525.208 449.077H525.308V445.318H526.481V455.5H525.347V454.327H525.208C525.122 454.466 524.999 454.642 524.84 454.854C524.681 455.062 524.454 455.25 524.159 455.415C523.864 455.578 523.471 455.659 522.981 455.659ZM523.14 454.605C523.611 454.605 524.008 454.482 524.333 454.237C524.658 453.989 524.905 453.646 525.074 453.208C525.243 452.767 525.327 452.259 525.327 451.682C525.327 451.112 525.245 450.613 525.079 450.185C524.913 449.754 524.668 449.42 524.343 449.181C524.018 448.939 523.617 448.818 523.14 448.818C522.643 448.818 522.228 448.946 521.897 449.201C521.569 449.453 521.322 449.796 521.156 450.23C520.994 450.661 520.913 451.145 520.913 451.682C520.913 452.225 520.996 452.719 521.161 453.163C521.33 453.604 521.579 453.955 521.907 454.217C522.238 454.476 522.649 454.605 523.14 454.605Z" fill="#171717"/>
<g filter="url(#filter1_d_1_6998)">
<rect x="327" y="477" width="265" height="164" rx="24" fill="white"/>
</g>
<ellipse cx="386.833" cy="520.589" rx="28" ry="28.3832" fill="#9D90FA" fill-opacity="0.25"/>
<path d="M396.434 519.755H386.656V509.843C386.656 509.721 386.557 509.621 386.437 509.621H385.726C384.291 509.62 382.87 509.905 381.545 510.462C380.219 511.019 379.015 511.835 378.001 512.864C377.003 513.873 376.208 515.068 375.661 516.384C375.092 517.751 374.802 519.201 374.802 520.697C374.802 522.194 375.092 523.641 375.661 525.008C376.21 526.324 376.998 527.51 378.001 528.528C379.005 529.545 380.172 530.343 381.474 530.9C382.82 531.479 384.267 531.776 385.729 531.773C387.163 531.775 388.584 531.489 389.91 530.933C391.235 530.376 392.44 529.56 393.453 528.53C394.457 527.513 395.244 526.33 395.794 525.01C396.365 523.646 396.658 522.179 396.655 520.697V519.977C396.652 519.855 396.554 519.755 396.434 519.755ZM398.837 518.217L398.766 517.435C398.534 514.885 397.418 512.479 395.619 510.663C393.821 508.843 391.453 507.716 388.922 507.479L388.148 507.407C388.02 507.396 387.911 507.495 387.911 507.626V518.261C387.911 518.383 388.009 518.483 388.129 518.483L398.618 518.455C398.747 518.452 398.848 518.344 398.837 518.217Z" fill="#9D90FA"/>
<path d="M505.833 511.657L509.833 507.657L513.833 511.657" stroke="#0049C6" stroke-width="2" stroke-linecap="round" stroke-linejoin="round"/>
<path d="M509.833 507.657V517.986" stroke="#0049C6" stroke-width="2" stroke-linecap="round" stroke-linejoin="round"/>
<path d="M527.088 508.174V518.356H524.936V510.217H524.876L522.544 511.679V509.77L525.065 508.174H527.088ZM529.354 516.566V514.871L533.605 508.174H535.066V510.521H534.201L531.522 514.761V514.841H537.562V516.566H529.354ZM534.241 518.356V516.049L534.281 515.298V508.174H536.299V518.356H534.241ZM544.57 516.447V515.91C544.57 515.502 544.656 515.128 544.828 514.786C545.004 514.442 545.257 514.166 545.589 513.961C545.924 513.752 546.331 513.648 546.812 513.648C547.299 513.648 547.708 513.75 548.04 513.956C548.375 514.161 548.626 514.437 548.795 514.781C548.968 515.123 549.054 515.499 549.054 515.91V516.447C549.054 516.854 548.968 517.231 548.795 517.575C548.623 517.917 548.37 518.19 548.035 518.396C547.7 518.604 547.292 518.709 546.812 518.709C546.325 518.709 545.915 518.604 545.584 518.396C545.252 518.19 545 517.917 544.828 517.575C544.656 517.231 544.57 516.854 544.57 516.447ZM546.016 515.91V516.447C546.016 516.682 546.073 516.904 546.185 517.113C546.301 517.322 546.51 517.426 546.812 517.426C547.113 517.426 547.319 517.323 547.428 517.118C547.541 516.912 547.597 516.689 547.597 516.447V515.91C547.597 515.668 547.544 515.442 547.438 515.234C547.332 515.025 547.123 514.92 546.812 514.92C546.513 514.92 546.306 515.025 546.19 515.234C546.074 515.442 546.016 515.668 546.016 515.91ZM539.344 510.62V510.083C539.344 509.672 539.432 509.296 539.608 508.955C539.784 508.61 540.037 508.335 540.369 508.129C540.703 507.924 541.108 507.821 541.582 507.821C542.072 507.821 542.483 507.924 542.815 508.129C543.146 508.335 543.398 508.61 543.57 508.955C543.743 509.296 543.829 509.672 543.829 510.083V510.62C543.829 511.031 543.741 511.407 543.565 511.749C543.393 512.09 543.139 512.363 542.805 512.569C542.473 512.771 542.066 512.872 541.582 512.872C541.098 512.872 540.688 512.769 540.354 512.564C540.022 512.355 539.77 512.082 539.598 511.744C539.429 511.402 539.344 511.028 539.344 510.62ZM540.801 510.083V510.62C540.801 510.862 540.857 511.086 540.97 511.291C541.086 511.497 541.29 511.599 541.582 511.599C541.887 511.599 542.094 511.497 542.203 511.291C542.316 511.086 542.372 510.862 542.372 510.62V510.083C542.372 509.841 542.319 509.616 542.213 509.407C542.107 509.198 541.897 509.094 541.582 509.094C541.287 509.094 541.083 509.2 540.97 509.412C540.857 509.624 540.801 509.848 540.801 510.083ZM540.001 518.356L547.001 508.174H548.303L541.303 518.356H540.001Z" fill="#0049C6"/>
<path d="M505.413 528.854V527.916H511.958V528.854H509.214V536.643H508.157V528.854H505.413ZM514.459 532.706V536.643H513.453V527.916H514.459V531.121H514.544C514.697 530.783 514.927 530.514 515.234 530.315C515.544 530.113 515.956 530.013 516.47 530.013C516.916 530.013 517.307 530.102 517.642 530.281C517.977 530.457 518.237 530.729 518.422 531.095C518.609 531.459 518.703 531.922 518.703 532.484V536.643H517.697V532.552C517.697 532.033 517.562 531.631 517.292 531.346C517.025 531.06 516.655 530.916 516.18 530.916C515.851 530.916 515.555 530.986 515.294 531.125C515.035 531.264 514.831 531.467 514.68 531.734C514.532 532.001 514.459 532.325 514.459 532.706ZM520.543 536.643V530.098H521.548V536.643H520.543ZM521.054 529.007C520.858 529.007 520.689 528.94 520.547 528.807C520.408 528.673 520.338 528.513 520.338 528.325C520.338 528.138 520.408 527.977 520.547 527.844C520.689 527.71 520.858 527.643 521.054 527.643C521.25 527.643 521.418 527.71 521.557 527.844C521.699 527.977 521.77 528.138 521.77 528.325C521.77 528.513 521.699 528.673 521.557 528.807C521.418 528.94 521.25 529.007 521.054 529.007ZM528.027 531.564L527.123 531.819C527.067 531.669 526.983 531.523 526.872 531.381C526.764 531.236 526.616 531.116 526.429 531.023C526.241 530.929 526.001 530.882 525.709 530.882C525.308 530.882 524.974 530.974 524.707 531.159C524.443 531.341 524.311 531.572 524.311 531.854C524.311 532.104 524.402 532.301 524.584 532.446C524.765 532.591 525.05 532.711 525.436 532.808L526.407 533.047C526.993 533.189 527.429 533.406 527.716 533.699C528.003 533.988 528.146 534.362 528.146 534.819C528.146 535.194 528.038 535.53 527.822 535.825C527.609 536.121 527.311 536.354 526.927 536.524C526.544 536.694 526.098 536.78 525.589 536.78C524.922 536.78 524.369 536.635 523.932 536.345C523.494 536.055 523.217 535.632 523.101 535.075L524.055 534.836C524.146 535.189 524.318 535.453 524.571 535.629C524.827 535.805 525.16 535.893 525.572 535.893C526.041 535.893 526.413 535.794 526.689 535.595C526.967 535.393 527.106 535.152 527.106 534.871C527.106 534.643 527.027 534.453 526.868 534.3C526.709 534.143 526.464 534.027 526.135 533.95L525.044 533.694C524.444 533.552 524.004 533.332 523.723 533.034C523.444 532.733 523.305 532.356 523.305 531.905C523.305 531.535 523.409 531.209 523.616 530.925C523.827 530.64 524.112 530.417 524.473 530.256C524.836 530.094 525.248 530.013 525.709 530.013C526.356 530.013 526.865 530.155 527.234 530.439C527.606 530.723 527.871 531.098 528.027 531.564ZM534.518 536.643L532.524 530.098H533.58L534.995 535.109H535.063L536.461 530.098H537.535L538.916 535.092H538.984L540.399 530.098H541.455L539.461 536.643H538.472L537.041 531.615H536.938L535.507 536.643H534.518ZM545.307 536.78C544.676 536.78 544.132 536.64 543.675 536.362C543.22 536.081 542.869 535.689 542.622 535.186C542.378 534.68 542.255 534.092 542.255 533.422C542.255 532.751 542.378 532.16 542.622 531.649C542.869 531.135 543.213 530.734 543.653 530.447C544.096 530.158 544.613 530.013 545.204 530.013C545.545 530.013 545.882 530.069 546.214 530.183C546.547 530.297 546.849 530.481 547.122 530.737C547.395 530.99 547.612 531.325 547.774 531.743C547.936 532.16 548.017 532.675 548.017 533.285V533.711H542.971V532.842H546.994C546.994 532.473 546.92 532.143 546.773 531.854C546.628 531.564 546.42 531.335 546.15 531.167C545.883 531 545.568 530.916 545.204 530.916C544.804 530.916 544.457 531.015 544.165 531.214C543.875 531.41 543.652 531.666 543.496 531.981C543.339 532.297 543.261 532.635 543.261 532.996V533.575C543.261 534.069 543.346 534.488 543.517 534.832C543.69 535.173 543.93 535.433 544.237 535.612C544.544 535.788 544.9 535.876 545.307 535.876C545.571 535.876 545.809 535.839 546.023 535.765C546.238 535.689 546.425 535.575 546.581 535.425C546.737 535.271 546.858 535.081 546.943 534.854L547.915 535.126C547.812 535.456 547.64 535.746 547.399 535.996C547.157 536.243 546.859 536.436 546.504 536.575C546.149 536.711 545.75 536.78 545.307 536.78ZM552.291 536.78C551.66 536.78 551.116 536.64 550.659 536.362C550.204 536.081 549.853 535.689 549.606 535.186C549.362 534.68 549.24 534.092 549.24 533.422C549.24 532.751 549.362 532.16 549.606 531.649C549.853 531.135 550.197 530.734 550.638 530.447C551.081 530.158 551.598 530.013 552.189 530.013C552.53 530.013 552.866 530.069 553.199 530.183C553.531 530.297 553.834 530.481 554.106 530.737C554.379 530.99 554.596 531.325 554.758 531.743C554.92 532.16 555.001 532.675 555.001 533.285V533.711H549.956V532.842H553.978C553.978 532.473 553.905 532.143 553.757 531.854C553.612 531.564 553.405 531.335 553.135 531.167C552.868 531 552.552 530.916 552.189 530.916C551.788 530.916 551.442 531.015 551.149 531.214C550.859 531.41 550.636 531.666 550.48 531.981C550.324 532.297 550.246 532.635 550.246 532.996V533.575C550.246 534.069 550.331 534.488 550.501 534.832C550.675 535.173 550.915 535.433 551.221 535.612C551.528 535.788 551.885 535.876 552.291 535.876C552.555 535.876 552.794 535.839 553.007 535.765C553.223 535.689 553.409 535.575 553.565 535.425C553.721 535.271 553.842 535.081 553.927 534.854L554.899 535.126C554.797 535.456 554.625 535.746 554.383 535.996C554.142 536.243 553.844 536.436 553.488 536.575C553.133 536.711 552.734 536.78 552.291 536.78ZM557.469 534.257L557.452 533.013H557.656L560.52 530.098H561.764L558.713 533.183H558.628L557.469 534.257ZM556.531 536.643V527.916H557.537V536.643H556.531ZM560.69 536.643L558.133 533.405L558.849 532.706L561.969 536.643H560.69Z" fill="#171717"/>
<path d="M363.871 570.009V580.191H361.718V570.009H363.871ZM371.956 574.732L370.017 574.851C369.984 574.685 369.913 574.536 369.803 574.404C369.694 574.268 369.55 574.16 369.371 574.081C369.195 573.998 368.985 573.956 368.739 573.956C368.411 573.956 368.134 574.026 367.909 574.165C367.684 574.301 367.571 574.483 367.571 574.712C367.571 574.894 367.644 575.048 367.79 575.174C367.936 575.3 368.186 575.401 368.54 575.478L369.923 575.756C370.665 575.908 371.218 576.154 371.583 576.492C371.948 576.83 372.13 577.274 372.13 577.824C372.13 578.325 371.982 578.764 371.687 579.142C371.396 579.52 370.995 579.814 370.484 580.027C369.977 580.235 369.392 580.34 368.729 580.34C367.718 580.34 366.913 580.129 366.313 579.708C365.717 579.284 365.367 578.707 365.264 577.978L367.347 577.869C367.41 578.177 367.563 578.413 367.805 578.575C368.047 578.734 368.357 578.814 368.734 578.814C369.106 578.814 369.404 578.742 369.629 578.6C369.858 578.454 369.974 578.267 369.977 578.038C369.974 577.846 369.893 577.688 369.734 577.566C369.575 577.44 369.329 577.344 368.998 577.277L367.675 577.014C366.93 576.865 366.375 576.606 366.01 576.238C365.649 575.87 365.468 575.401 365.468 574.831C365.468 574.341 365.601 573.918 365.866 573.564C366.134 573.209 366.51 572.935 366.994 572.743C367.482 572.551 368.052 572.455 368.705 572.455C369.669 572.455 370.428 572.659 370.982 573.066C371.538 573.474 371.863 574.029 371.956 574.732ZM379.817 574.732L377.878 574.851C377.845 574.685 377.774 574.536 377.665 574.404C377.555 574.268 377.411 574.16 377.232 574.081C377.056 573.998 376.846 573.956 376.601 573.956C376.273 573.956 375.996 574.026 375.77 574.165C375.545 574.301 375.432 574.483 375.432 574.712C375.432 574.894 375.505 575.048 375.651 575.174C375.797 575.3 376.047 575.401 376.402 575.478L377.784 575.756C378.526 575.908 379.08 576.154 379.444 576.492C379.809 576.83 379.991 577.274 379.991 577.824C379.991 578.325 379.844 578.764 379.549 579.142C379.257 579.52 378.856 579.814 378.346 580.027C377.839 580.235 377.254 580.34 376.591 580.34C375.58 580.34 374.774 580.129 374.175 579.708C373.578 579.284 373.228 578.707 373.126 577.978L375.209 577.869C375.272 578.177 375.424 578.413 375.666 578.575C375.908 578.734 376.218 578.814 376.596 578.814C376.967 578.814 377.265 578.742 377.491 578.6C377.719 578.454 377.835 578.267 377.839 578.038C377.835 577.846 377.754 577.688 377.595 577.566C377.436 577.44 377.191 577.344 376.859 577.277L375.537 577.014C374.791 576.865 374.236 576.606 373.871 576.238C373.51 575.87 373.329 575.401 373.329 574.831C373.329 574.341 373.462 573.918 373.727 573.564C373.996 573.209 374.372 572.935 374.856 572.743C375.343 572.551 375.913 572.455 376.566 572.455C377.53 572.455 378.289 572.659 378.843 573.066C379.4 573.474 379.724 574.029 379.817 574.732ZM386.222 576.939V572.554H388.34V580.191H386.306V578.804H386.227C386.055 579.251 385.768 579.611 385.367 579.882C384.969 580.154 384.484 580.29 383.91 580.29C383.4 580.29 382.951 580.174 382.563 579.942C382.175 579.71 381.872 579.38 381.653 578.953C381.438 578.525 381.328 578.013 381.325 577.417V572.554H383.443V577.039C383.446 577.489 383.567 577.846 383.806 578.108C384.044 578.369 384.364 578.5 384.765 578.5C385.02 578.5 385.259 578.442 385.481 578.326C385.703 578.207 385.882 578.031 386.018 577.799C386.157 577.567 386.225 577.281 386.222 576.939ZM393.514 580.34C392.728 580.34 392.052 580.181 391.486 579.863C390.922 579.541 390.488 579.087 390.183 578.5C389.878 577.91 389.726 577.213 389.726 576.407C389.726 575.622 389.878 574.932 390.183 574.339C390.488 573.746 390.917 573.283 391.471 572.952C392.027 572.621 392.68 572.455 393.429 572.455C393.933 572.455 394.402 572.536 394.836 572.698C395.274 572.858 395.655 573.098 395.98 573.419C396.308 573.741 396.563 574.145 396.746 574.632C396.928 575.116 397.019 575.683 397.019 576.333V576.914H390.571V575.602H395.025C395.025 575.297 394.959 575.027 394.827 574.792C394.694 574.556 394.51 574.372 394.275 574.24C394.043 574.104 393.773 574.036 393.464 574.036C393.143 574.036 392.858 574.11 392.609 574.26C392.364 574.405 392.172 574.603 392.032 574.851C391.893 575.096 391.822 575.37 391.819 575.671V576.919C391.819 577.297 391.888 577.624 392.027 577.899C392.17 578.174 392.371 578.386 392.629 578.535C392.888 578.684 393.194 578.759 393.549 578.759C393.784 578.759 394 578.726 394.195 578.659C394.391 578.593 394.558 578.494 394.697 578.361C394.836 578.229 394.943 578.066 395.015 577.874L396.974 578.003C396.875 578.474 396.671 578.885 396.363 579.236C396.058 579.584 395.663 579.856 395.179 580.051C394.699 580.244 394.144 580.34 393.514 580.34ZM404.755 574.732L402.816 574.851C402.783 574.685 402.711 574.536 402.602 574.404C402.493 574.268 402.349 574.16 402.17 574.081C401.994 573.998 401.783 573.956 401.538 573.956C401.21 573.956 400.933 574.026 400.708 574.165C400.483 574.301 400.37 574.483 400.37 574.712C400.37 574.894 400.443 575.048 400.589 575.174C400.734 575.3 400.985 575.401 401.339 575.478L402.721 575.756C403.464 575.908 404.017 576.154 404.382 576.492C404.746 576.83 404.929 577.274 404.929 577.824C404.929 578.325 404.781 578.764 404.486 579.142C404.195 579.52 403.794 579.814 403.283 580.027C402.776 580.235 402.191 580.34 401.528 580.34C400.517 580.34 399.712 580.129 399.112 579.708C398.515 579.284 398.166 578.707 398.063 577.978L400.146 577.869C400.209 578.177 400.362 578.413 400.603 578.575C400.845 578.734 401.155 578.814 401.533 578.814C401.904 578.814 402.203 578.742 402.428 578.6C402.657 578.454 402.773 578.267 402.776 578.038C402.773 577.846 402.692 577.688 402.532 577.566C402.373 577.44 402.128 577.344 401.797 577.277L400.474 577.014C399.728 576.865 399.173 576.606 398.809 576.238C398.447 575.87 398.267 575.401 398.267 574.831C398.267 574.341 398.399 573.918 398.665 573.564C398.933 573.209 399.309 572.935 399.793 572.743C400.28 572.551 400.85 572.455 401.503 572.455C402.468 572.455 403.227 572.659 403.78 573.066C404.337 573.474 404.662 574.029 404.755 574.732ZM409.542 580.191V570.009H416.284V571.784H411.695V574.21H415.836V575.985H411.695V580.191H409.542ZM417.692 580.191V572.554H419.81V580.191H417.692ZM418.756 571.57C418.441 571.57 418.171 571.466 417.946 571.257C417.724 571.045 417.613 570.791 417.613 570.496C417.613 570.204 417.724 569.954 417.946 569.745C418.171 569.533 418.441 569.427 418.756 569.427C419.071 569.427 419.339 569.533 419.561 569.745C419.787 569.954 419.899 570.204 419.899 570.496C419.899 570.791 419.787 571.045 419.561 571.257C419.339 571.466 419.071 571.57 418.756 571.57ZM423.276 572.554L424.678 575.224L426.115 572.554H428.288L426.075 576.372L428.347 580.191H426.185L424.678 577.551L423.197 580.191H421.009L423.276 576.372L421.089 572.554H423.276ZM432.752 580.34C431.967 580.34 431.291 580.181 430.724 579.863C430.16 579.541 429.726 579.087 429.421 578.5C429.116 577.91 428.964 577.213 428.964 576.407C428.964 575.622 429.116 574.932 429.421 574.339C429.726 573.746 430.155 573.283 430.709 572.952C431.266 572.621 431.919 572.455 432.668 572.455C433.172 572.455 433.641 572.536 434.075 572.698C434.512 572.858 434.893 573.098 435.218 573.419C435.546 573.741 435.802 574.145 435.984 574.632C436.166 575.116 436.257 575.683 436.257 576.333V576.914H429.809V575.602H434.264C434.264 575.297 434.197 575.027 434.065 574.792C433.932 574.556 433.748 574.372 433.513 574.24C433.281 574.104 433.011 574.036 432.703 574.036C432.381 574.036 432.096 574.11 431.847 574.26C431.602 574.405 431.41 574.603 431.271 574.851C431.132 575.096 431.06 575.37 431.057 575.671V576.919C431.057 577.297 431.127 577.624 431.266 577.899C431.408 578.174 431.609 578.386 431.867 578.535C432.126 578.684 432.432 578.759 432.787 578.759C433.022 578.759 433.238 578.726 433.433 578.659C433.629 578.593 433.796 578.494 433.936 578.361C434.075 578.229 434.181 578.066 434.254 577.874L436.213 578.003C436.113 578.474 435.909 578.885 435.601 579.236C435.296 579.584 434.902 579.856 434.418 580.051C433.937 580.244 433.382 580.34 432.752 580.34ZM440.453 580.315C439.873 580.315 439.348 580.166 438.877 579.868C438.41 579.566 438.039 579.123 437.764 578.54C437.492 577.953 437.356 577.234 437.356 576.382C437.356 575.507 437.497 574.78 437.779 574.2C438.06 573.617 438.435 573.181 438.902 572.892C439.373 572.601 439.888 572.455 440.448 572.455C440.876 572.455 441.232 572.528 441.517 572.674C441.806 572.816 442.038 572.995 442.213 573.211C442.392 573.423 442.528 573.631 442.621 573.837H442.686V570.009H444.798V580.191H442.71V578.968H442.621C442.521 579.18 442.381 579.39 442.198 579.599C442.019 579.805 441.786 579.975 441.497 580.111C441.212 580.247 440.864 580.315 440.453 580.315ZM441.124 578.63C441.466 578.63 441.754 578.537 441.99 578.351C442.228 578.162 442.41 577.899 442.536 577.561C442.666 577.223 442.73 576.827 442.73 576.372C442.73 575.918 442.667 575.524 442.541 575.189C442.415 574.854 442.233 574.596 441.994 574.414C441.756 574.231 441.466 574.14 441.124 574.14C440.776 574.14 440.483 574.235 440.244 574.424C440.006 574.613 439.825 574.874 439.703 575.209C439.58 575.544 439.519 575.932 439.519 576.372C439.519 576.817 439.58 577.209 439.703 577.551C439.829 577.889 440.009 578.154 440.244 578.346C440.483 578.535 440.776 578.63 441.124 578.63Z" fill="#171717"/>
<path d="M371.22 621.892C369.614 621.892 368.182 621.597 366.924 621.006C365.674 620.415 364.682 619.6 363.947 618.562C363.212 617.525 362.829 616.335 362.799 614.994H367.572C367.625 615.896 368.004 616.627 368.708 617.187C369.413 617.748 370.25 618.028 371.22 618.028C371.992 618.028 372.674 617.858 373.265 617.517C373.864 617.169 374.329 616.687 374.663 616.074C375.004 615.453 375.174 614.741 375.174 613.937C375.174 613.119 375 612.4 374.651 611.778C374.311 611.157 373.837 610.672 373.231 610.324C372.625 609.975 371.932 609.797 371.151 609.79C370.47 609.79 369.807 609.93 369.163 610.21C368.526 610.491 368.03 610.873 367.674 611.358L363.299 610.574L364.401 598.301H378.629V602.324H368.458L367.856 608.153H367.992C368.401 607.578 369.019 607.1 369.845 606.722C370.67 606.343 371.595 606.153 372.617 606.153C374.019 606.153 375.269 606.483 376.367 607.142C377.466 607.801 378.333 608.706 378.97 609.858C379.606 611.002 379.92 612.32 379.913 613.812C379.92 615.381 379.557 616.775 378.822 617.994C378.095 619.206 377.076 620.161 375.765 620.858C374.462 621.547 372.947 621.892 371.22 621.892ZM392.47 622.085C390.515 622.078 388.833 621.597 387.424 620.642C386.023 619.687 384.943 618.305 384.186 616.494C383.436 614.684 383.064 612.506 383.072 609.96C383.072 607.422 383.447 605.259 384.197 603.472C384.954 601.684 386.034 600.324 387.436 599.392C388.845 598.453 390.523 597.983 392.47 597.983C394.417 597.983 396.091 598.453 397.492 599.392C398.901 600.331 399.985 601.695 400.742 603.483C401.5 605.263 401.875 607.422 401.867 609.96C401.867 612.513 401.489 614.695 400.731 616.506C399.981 618.316 398.905 619.699 397.504 620.653C396.102 621.608 394.424 622.085 392.47 622.085ZM392.47 618.006C393.803 618.006 394.867 617.335 395.663 615.994C396.458 614.653 396.852 612.642 396.845 609.96C396.845 608.195 396.663 606.725 396.299 605.551C395.943 604.377 395.436 603.494 394.776 602.903C394.125 602.312 393.356 602.017 392.47 602.017C391.144 602.017 390.083 602.68 389.288 604.006C388.492 605.331 388.091 607.316 388.083 609.96C388.083 611.748 388.261 613.241 388.617 614.437C388.981 615.627 389.492 616.521 390.151 617.119C390.811 617.71 391.583 618.006 392.47 618.006ZM414.501 622.085C412.546 622.078 410.865 621.597 409.455 620.642C408.054 619.687 406.974 618.305 406.217 616.494C405.467 614.684 405.096 612.506 405.103 609.96C405.103 607.422 405.478 605.259 406.228 603.472C406.986 601.684 408.065 600.324 409.467 599.392C410.876 598.453 412.554 597.983 414.501 597.983C416.448 597.983 418.122 598.453 419.524 599.392C420.933 600.331 422.016 601.695 422.774 603.483C423.531 605.263 423.906 607.422 423.899 609.96C423.899 612.513 423.52 614.695 422.762 616.506C422.012 618.316 420.936 619.699 419.535 620.653C418.133 621.608 416.455 622.085 414.501 622.085ZM414.501 618.006C415.834 618.006 416.899 617.335 417.694 615.994C418.49 614.653 418.883 612.642 418.876 609.96C418.876 608.195 418.694 606.725 418.33 605.551C417.974 604.377 417.467 603.494 416.808 602.903C416.156 602.312 415.387 602.017 414.501 602.017C413.175 602.017 412.115 602.68 411.319 604.006C410.524 605.331 410.122 607.316 410.115 609.96C410.115 611.748 410.293 613.241 410.649 614.437C411.012 615.627 411.524 616.521 412.183 617.119C412.842 617.71 413.615 618.006 414.501 618.006ZM427.543 621.574V598.301H432.464V608.562H432.771L441.146 598.301H447.043L438.407 608.722L447.146 621.574H441.259L434.884 612.006L432.464 614.96V621.574H427.543ZM455.018 618.028V601.937H459.086V618.028H455.018ZM449.007 612.017V607.949H465.097V612.017H449.007Z" fill="#081735"/>
<defs>
<filter id="filter0_d_1_6998" x="99" y="295" width="495" height="218" filterUnits="userSpaceOnUse" color-interpolation-filters="sRGB">
<feFlood flood-opacity="0" result="BackgroundImageFix"/>
<feColorMatrix in="SourceAlpha" type="matrix" values="0 0 0 0 0 0 0 0 0 0 0 0 0 0 0 0 0 0 127 0" result="hardAlpha"/>
<feOffset/>
<feGaussianBlur stdDeviation="12"/>
<feComposite in2="hardAlpha" operator="out"/>
<feColorMatrix type="matrix" values="0 0 0 0 0.0321181 0 0 0 0 0.0908565 0 0 0 0 0.208333 0 0 0 0.16 0"/>
<feBlend mode="normal" in2="BackgroundImageFix" result="effect1_dropShadow_1_6998"/>
<feBlend mode="normal" in="SourceGraphic" in2="effect1_dropShadow_1_6998" result="shape"/>
</filter>
<filter id="filter1_d_1_6998" x="303" y="453" width="313" height="212" filterUnits="userSpaceOnUse" color-interpolation-filters="sRGB">
<feFlood flood-opacity="0" result="BackgroundImageFix"/>
<feColorMatrix in="SourceAlpha" type="matrix" values="0 0 0 0 0 0 0 0 0 0 0 0 0 0 0 0 0 0 127 0" result="hardAlpha"/>
<feOffset/>
<feGaussianBlur stdDeviation="12"/>
<feComposite in2="hardAlpha" operator="out"/>
<feColorMatrix type="matrix" values="0 0 0 0 0.0321181 0 0 0 0 0.0908565 0 0 0 0 0.208333 0 0 0 0.16 0"/>
<feBlend mode="normal" in2="BackgroundImageFix" result="effect1_dropShadow_1_6998"/>
<feBlend mode="normal" in="SourceGraphic" in2="effect1_dropShadow_1_6998" result="shape"/>
</filter>
</defs>
</svg>
